<svg width="35" height="30" viewBox="0 0 35 30" fill="none" xmlns="http://www.w3.org/2000/svg">
<path d="M33.7767 15.3476C33.3631 14.9946 32.7314 15.0326 32.366 15.4321L32.3499 15.4497V14.7731C32.3499 10.8271 30.7591 7.11714 27.8706 4.32671C24.9823 1.53652 21.142 0 17.0573 0C14.5899 0 12.1381 0.58132 9.96668 1.68085C7.86576 2.74467 6.02173 4.29226 4.63396 6.15666C4.31174 6.58938 4.41376 7.19282 4.86195 7.5041C5.31014 7.81563 5.9348 7.71707 6.25702 7.28409C7.46416 5.66233 9.06796 4.31615 10.8948 3.39111C12.781 2.43591 14.9119 1.93103 17.0573 1.93103C24.3874 1.93103 30.351 7.69217 30.351 14.7734V15.45L30.3346 15.4324C29.9692 15.0326 29.3375 14.9949 28.9239 15.3479C28.5101 15.7009 28.471 16.3111 28.8365 16.7107L30.6011 18.6407C30.7909 18.8481 31.0636 18.9668 31.3502 18.9668C31.6367 18.9668 31.9095 18.8481 32.0992 18.6407L33.8639 16.7107C34.2296 16.3109 34.1905 15.7007 33.7767 15.3476Z" fill="black"/>
<path d="M29.2526 22.0389C28.8044 21.7276 28.18 21.8259 27.8576 22.2589C26.6504 23.8804 25.0466 25.2266 23.2198 26.1519C21.3336 27.1071 19.2024 27.612 17.0573 27.612C9.72721 27.612 3.76358 21.8508 3.76358 14.7696V14.093L3.77998 14.1109C4.1454 14.5104 4.77708 14.5484 5.19066 14.1951C5.60449 13.8421 5.64353 13.2318 5.27811 12.8323L3.51346 10.9023C3.32346 10.6949 3.05095 10.5759 2.76439 10.5759C2.47783 10.5759 2.20481 10.6949 2.01533 10.9023L0.250418 12.8323C-0.115005 13.2321 -0.0759636 13.8421 0.33787 14.1951C0.527869 14.3575 0.763937 14.4372 0.999223 14.4372C1.27563 14.4372 1.551 14.3268 1.74855 14.1109L1.76469 14.093V14.7696C1.76469 18.7159 3.35547 22.4256 6.24398 25.216C9.13223 28.0065 12.9726 29.543 17.0573 29.543C19.5244 29.543 21.9764 28.9617 24.1479 27.8621C26.2485 26.7983 28.0926 25.2505 29.4804 23.3863C29.8026 22.9534 29.7008 22.3502 29.2526 22.0389Z" fill="black"/>
<path d="M17.0573 18.6316C19.2615 18.6316 21.0551 16.8992 21.0551 14.7695C21.0551 12.6401 19.2615 10.9075 17.0573 10.9075C14.8528 10.9075 13.0595 12.6401 13.0595 14.7695C13.0595 16.8992 14.8528 18.6316 17.0573 18.6316ZM17.0573 12.8385C18.1595 12.8385 19.0562 13.7047 19.0562 14.7695C19.0562 15.8344 18.1595 16.7006 17.0573 16.7006C15.955 16.7006 15.0584 15.8344 15.0584 14.7695C15.0584 13.7047 15.955 12.8385 17.0573 12.8385Z" fill="black"/>
<path d="M7.19916 17.2434C7.13045 17.4905 7.16637 17.754 7.29911 17.9758L9.298 21.3207C9.43048 21.5424 9.64885 21.7041 9.9047 21.7705C10.1608 21.8366 10.4336 21.8022 10.6631 21.6739L12.1329 20.8542C12.7198 21.2973 13.3702 21.6609 14.0589 21.9309V23.568C14.0589 24.101 14.5063 24.5335 15.0584 24.5335H19.0562C19.6079 24.5335 20.0556 24.101 20.0556 23.568V21.9309C20.7443 21.6609 21.3947 21.2973 21.9816 20.8542L23.4514 21.6739C23.6807 21.8019 23.9537 21.8366 24.2096 21.7705C24.4657 21.7041 24.684 21.5424 24.8165 21.3207L26.8154 17.9758C26.9479 17.754 26.9838 17.4905 26.9153 17.2434C26.8466 16.996 26.679 16.785 26.4497 16.657L24.9768 15.8356C25.0273 15.4831 25.0528 15.1263 25.0528 14.7695C25.0528 14.4084 25.0268 14.0481 24.975 13.6916L26.4497 12.8692C26.6793 12.7412 26.8466 12.5302 26.9153 12.2828C26.9838 12.0354 26.9479 11.7719 26.8154 11.5501L24.8165 8.20552C24.5406 7.74389 23.9292 7.58573 23.4514 7.85225L21.972 8.67747C21.3874 8.23771 20.7404 7.87664 20.0556 7.60811V5.95819C20.0556 5.42515 19.6082 4.99268 19.0562 4.99268H15.0584C14.5063 4.99268 14.0589 5.42515 14.0589 5.95819V7.60811C13.3744 7.87664 12.7271 8.23771 12.1428 8.67747L10.6631 7.85225C10.1853 7.58548 9.57389 7.74389 9.298 8.20552L7.29911 11.5501C7.16663 11.7719 7.13071 12.0356 7.19916 12.2828C7.26788 12.5302 7.43523 12.7412 7.66479 12.8692L9.1395 13.6916C9.0877 14.0481 9.06168 14.4084 9.06168 14.7695C9.06168 15.1263 9.08718 15.4828 9.13768 15.8356L7.66505 16.657C7.43523 16.785 7.26788 16.996 7.19916 17.2434ZM11.2217 16.1084C11.1147 15.6717 11.0606 15.2211 11.0606 14.7695C11.0606 14.3147 11.1155 13.8611 11.224 13.4211C11.3266 13.0057 11.1345 12.5745 10.7516 12.361L9.52991 11.6796L10.5294 10.0073L11.7552 10.6912C12.1378 10.9044 12.6201 10.8499 12.9413 10.5569C13.6214 9.93641 14.4519 9.47301 15.3434 9.2168C15.7671 9.09485 16.0578 8.71845 16.0578 8.29126V6.9237H18.0567V8.29126C18.0567 8.71845 18.3472 9.09485 18.7709 9.2168C19.6626 9.47301 20.4931 9.93666 21.1732 10.5569C21.4944 10.8499 21.9767 10.9044 22.359 10.6912L23.5852 10.0073L24.5846 11.6796L23.3629 12.361C22.98 12.5745 22.7879 13.0057 22.8902 13.4211C22.9988 13.8611 23.0539 14.3147 23.0539 14.7695C23.0539 15.2211 22.9995 15.6717 22.8928 16.1084C22.7913 16.5235 22.9834 16.9535 23.3657 17.1667L24.5846 17.8466L23.5852 19.5189L22.3681 18.84C21.985 18.6263 21.5019 18.6813 21.1808 18.9753C20.4994 19.5991 19.666 20.065 18.7712 20.3225C18.3472 20.4442 18.0567 20.8206 18.0567 21.2477V22.6025H16.0578V21.2477C16.0578 20.8206 15.7673 20.4442 15.3436 20.3225C14.4485 20.065 13.6151 19.5993 12.9338 18.9753C12.6126 18.6813 12.1298 18.6265 11.7466 18.84L10.5294 19.5189L9.52991 17.8466L10.7488 17.1667C11.1308 16.9535 11.3232 16.5235 11.2217 16.1084Z" fill="black"/>
</svg>
