<svg width="250" height="56" viewBox="0 0 250 56" fill="none" xmlns="http://www.w3.org/2000/svg">
<g clip-path="url(#clip0_493_817)">
<path d="M145.323 53.264C145.323 53.4244 145.302 53.5848 145.281 53.7452C145.26 53.9056 145.218 54.043 145.175 54.1805C145.112 54.318 145.049 54.4325 144.965 54.5471C144.881 54.6387 144.775 54.7304 144.649 54.7991C144.523 54.8678 144.375 54.8908 144.186 54.8908C144.017 54.8908 143.87 54.8678 143.743 54.7991C143.617 54.7304 143.512 54.6616 143.427 54.57C143.343 54.4783 143.28 54.3409 143.217 54.2034C143.154 54.0659 143.111 53.9056 143.09 53.7681C143.069 53.6077 143.048 53.4473 143.048 53.2869V50.9958H142.395V53.2869C142.395 53.539 142.416 53.7681 142.459 53.9743C142.501 54.1805 142.564 54.3867 142.648 54.5929C142.732 54.7991 142.859 54.9595 142.985 55.097C143.111 55.2344 143.28 55.349 143.491 55.4406C143.701 55.5323 143.933 55.5552 144.186 55.5552C144.501 55.5552 144.775 55.4865 145.007 55.3719C145.239 55.2573 145.428 55.097 145.576 54.8678C145.723 54.6616 145.828 54.4096 145.891 54.1576C145.955 53.8826 145.997 53.6077 145.997 53.2869V50.9958H145.344V53.264M150.925 54.2492L148.566 50.9729H148.019V55.4865H148.672V52.2788L150.988 55.4865H151.557V50.9729H150.904L150.925 54.2492ZM153.684 55.5094H154.337V50.9958H153.684V55.5094ZM157.644 50.9729L156.022 55.4865H156.717L157.159 54.2492H158.76L159.202 55.4865H159.897L158.276 50.9729H157.644ZM157.265 53.7452L157.96 51.7748L158.634 53.7452H157.265ZM157.286 50.3772C157.286 50.3543 157.307 50.3084 157.328 50.2855C157.349 50.2397 157.37 50.2168 157.412 50.1939C157.454 50.171 157.496 50.148 157.559 50.148C157.623 50.148 157.707 50.171 157.77 50.2168C157.854 50.2626 157.939 50.3084 158.023 50.3543C158.107 50.4001 158.212 50.423 158.318 50.423C158.423 50.423 158.507 50.4001 158.591 50.3543C158.676 50.3084 158.739 50.2626 158.781 50.1939C158.823 50.1251 158.865 50.0564 158.907 49.9877C158.949 49.9189 158.971 49.8502 158.971 49.8044C158.992 49.7586 158.992 49.7127 158.992 49.6898H158.612C158.612 49.6898 158.612 49.7127 158.612 49.7356C158.612 49.7586 158.591 49.7815 158.591 49.8044C158.57 49.8273 158.57 49.8731 158.528 49.896C158.507 49.9189 158.465 49.9418 158.444 49.9648C158.402 49.9877 158.36 49.9877 158.297 49.9877C158.212 49.9877 158.149 49.9648 158.065 49.9189C157.981 49.8731 157.896 49.8273 157.812 49.7815C157.728 49.7356 157.623 49.7127 157.538 49.7127C157.454 49.7127 157.37 49.7356 157.286 49.7815C157.201 49.8273 157.159 49.8731 157.096 49.9418C157.033 50.0106 157.012 50.0793 156.991 50.148C156.949 50.2168 156.928 50.2855 156.928 50.3313C156.907 50.3772 156.907 50.423 156.907 50.4688H157.265C157.286 50.423 157.286 50.4001 157.286 50.3772ZM164.594 51.6602C164.425 51.454 164.215 51.2707 163.962 51.1333C163.709 50.9958 163.436 50.927 163.162 50.927C162.888 50.927 162.614 50.9958 162.361 51.1103C162.109 51.2478 161.898 51.4082 161.73 51.6144C161.561 51.8206 161.414 52.0726 161.308 52.3476C161.203 52.6225 161.161 52.9204 161.161 53.2182C161.161 53.4473 161.182 53.6764 161.245 53.9056C161.308 54.1347 161.393 54.3409 161.519 54.5242C161.645 54.7075 161.772 54.8908 161.94 55.0282C162.109 55.1657 162.277 55.2802 162.488 55.3719C162.698 55.4635 162.909 55.5094 163.162 55.5094C163.436 55.5094 163.709 55.4406 163.962 55.3261C164.215 55.2115 164.425 55.0282 164.594 54.822C164.762 54.6158 164.91 54.3638 165.015 54.0888C165.12 53.8139 165.163 53.5161 165.163 53.2182C165.163 52.9433 165.12 52.6454 165.015 52.3705C164.889 52.1414 164.762 51.8893 164.594 51.6602ZM164.362 53.8368C164.299 54.043 164.215 54.2034 164.109 54.3638C164.004 54.5242 163.857 54.6387 163.688 54.7304C163.52 54.822 163.33 54.8678 163.141 54.8678C162.888 54.8678 162.635 54.7991 162.446 54.6387C162.235 54.4783 162.088 54.2721 161.982 54.0201C161.877 53.7681 161.814 53.4931 161.814 53.2182C161.814 53.012 161.835 52.8058 161.898 52.6225C161.961 52.4163 162.045 52.2559 162.151 52.0955C162.256 51.9352 162.404 51.8206 162.572 51.729C162.74 51.6373 162.93 51.5915 163.141 51.5915C163.33 51.5915 163.52 51.6373 163.688 51.729C163.857 51.8206 164.004 51.9352 164.109 52.0955C164.215 52.2559 164.299 52.4163 164.362 52.6225C164.425 52.8287 164.468 53.0349 164.468 53.2411C164.468 53.4473 164.425 53.6535 164.362 53.8368ZM170.259 53.4931H172.113V52.8974H170.259V51.6144H172.387V50.9729H169.585V55.4865H172.429V54.8449H170.238V53.4931H170.259ZM179.779 53.2869C179.926 53.0349 180.011 52.76 180.011 52.4621C180.011 52.2788 179.969 52.0955 179.905 51.9352C179.842 51.7519 179.758 51.5915 179.653 51.454C179.547 51.3165 179.4 51.202 179.253 51.1103C179.084 51.0187 178.916 50.9729 178.726 50.9729H176.915V55.4865H177.568V53.9056H178.536L179.442 55.4865H180.179L179.21 53.7681C179.442 53.6993 179.632 53.539 179.779 53.2869ZM178.705 53.2869H177.547V51.5915H178.663C178.831 51.5915 179 51.6831 179.126 51.8435C179.253 52.0039 179.337 52.2101 179.337 52.4392C179.337 52.6683 179.274 52.8745 179.168 53.0349C179.042 53.2182 178.894 53.2869 178.705 53.2869ZM182.601 53.4931H184.455V52.8974H182.601V51.6144H184.749V50.9729H181.948V55.4865H184.792V54.8449H182.601V53.4931ZM189.109 54.57C188.983 54.6845 188.856 54.7762 188.709 54.822C188.583 54.8678 188.435 54.8908 188.288 54.8908C188.035 54.8908 187.803 54.822 187.593 54.6616C187.382 54.5013 187.235 54.295 187.108 54.043C187.003 53.791 186.94 53.5161 186.94 53.2182C186.94 53.0578 186.961 52.8974 187.003 52.7371C187.045 52.5767 187.087 52.4392 187.172 52.3017C187.256 52.1643 187.34 52.0268 187.445 51.9352C187.551 51.8206 187.677 51.7519 187.824 51.6831C187.972 51.6144 188.119 51.5915 188.288 51.5915C188.393 51.5915 188.498 51.6144 188.604 51.6373C188.709 51.6602 188.793 51.706 188.899 51.7519C189.004 51.7977 189.088 51.8893 189.172 51.981C189.257 52.0726 189.32 52.1872 189.383 52.3246L189.888 51.9581C189.741 51.6602 189.551 51.4311 189.257 51.2478C188.983 51.0645 188.667 50.9729 188.288 50.9729C188.035 50.9729 187.803 51.0187 187.593 51.1103C187.382 51.202 187.193 51.3165 187.024 51.454C186.856 51.5915 186.729 51.7748 186.624 51.9581C186.519 52.1414 186.413 52.3476 186.371 52.5767C186.308 52.7829 186.287 53.012 186.287 53.2411C186.287 53.5161 186.329 53.8139 186.434 54.0888C186.54 54.3638 186.666 54.6158 186.835 54.8449C187.003 55.074 187.214 55.2344 187.466 55.3719C187.719 55.5094 187.993 55.5781 188.267 55.5781C188.498 55.5781 188.709 55.5323 188.941 55.4635C189.151 55.3948 189.362 55.2573 189.551 55.097C189.741 54.9366 189.867 54.7533 189.952 54.5242L189.404 54.1805C189.341 54.318 189.236 54.4554 189.109 54.57ZM194.859 51.6602C194.69 51.454 194.48 51.2707 194.227 51.1333C193.974 50.9958 193.701 50.927 193.427 50.927C193.153 50.927 192.879 50.9958 192.626 51.1103C192.374 51.2478 192.163 51.4082 191.995 51.6144C191.826 51.8206 191.679 52.0726 191.573 52.3476C191.468 52.6225 191.426 52.9204 191.426 53.2182C191.426 53.4473 191.447 53.6764 191.51 53.9056C191.573 54.1347 191.658 54.3409 191.784 54.5242C191.91 54.7075 192.037 54.8908 192.205 55.0282C192.374 55.1657 192.542 55.2802 192.753 55.3719C192.963 55.4635 193.174 55.5094 193.427 55.5094C193.701 55.5094 193.974 55.4406 194.227 55.3261C194.48 55.2115 194.69 55.0282 194.859 54.822C195.027 54.6158 195.175 54.3638 195.28 54.0888C195.385 53.8139 195.428 53.5161 195.428 53.2182C195.428 52.9433 195.385 52.6454 195.28 52.3705C195.154 52.1414 195.027 51.8893 194.859 51.6602ZM194.648 53.8368C194.585 54.043 194.501 54.2034 194.396 54.3638C194.29 54.5242 194.143 54.6387 193.974 54.7304C193.806 54.822 193.616 54.8678 193.427 54.8678C193.174 54.8678 192.921 54.7991 192.732 54.6387C192.521 54.4783 192.374 54.2721 192.268 54.0201C192.163 53.7681 192.1 53.4931 192.1 53.2182C192.1 53.012 192.121 52.8058 192.184 52.6225C192.247 52.4163 192.332 52.2559 192.437 52.0955C192.542 51.9352 192.69 51.8206 192.858 51.729C193.027 51.6373 193.216 51.5915 193.427 51.5915C193.616 51.5915 193.806 51.6373 193.974 51.729C194.143 51.8206 194.29 51.9352 194.396 52.0955C194.501 52.2559 194.585 52.4163 194.648 52.6225C194.711 52.8287 194.754 53.0349 194.754 53.2411C194.733 53.4473 194.711 53.6535 194.648 53.8368ZM200.145 54.2492L197.786 50.9729H197.239V55.4865H197.892V52.2788L200.208 55.4865H200.777V50.9729H200.124L200.145 54.2492ZM205.6 53.4931C205.537 53.4015 205.432 53.3328 205.305 53.264C205.179 53.1953 205.053 53.1266 204.926 53.0807C204.8 53.0349 204.631 52.9891 204.463 52.9433C204.358 52.9204 204.252 52.8974 204.189 52.8745C204.126 52.8516 204.042 52.8287 203.957 52.8058C203.873 52.7829 203.81 52.76 203.768 52.7371C203.726 52.7142 203.684 52.6912 203.62 52.6454C203.578 52.5996 203.536 52.5767 203.515 52.5309C203.494 52.485 203.473 52.4392 203.452 52.3934C203.431 52.3476 203.431 52.2788 203.431 52.233C203.431 52.0268 203.494 51.8893 203.641 51.7748C203.768 51.6602 203.978 51.6144 204.252 51.6144C204.484 51.6144 204.694 51.6602 204.926 51.7748C205.137 51.8664 205.284 51.981 205.39 52.0955L205.684 51.4998C205.263 51.1562 204.8 50.9958 204.273 50.9958C204.063 50.9958 203.852 51.0187 203.684 51.0874C203.494 51.1562 203.347 51.2249 203.199 51.3395C203.073 51.454 202.967 51.5915 202.883 51.7748C202.799 51.9581 202.757 52.1414 202.757 52.3705C202.757 52.5538 202.778 52.6912 202.841 52.8287C202.904 52.9662 202.967 53.0578 203.073 53.1495C203.178 53.2411 203.304 53.3328 203.452 53.3786C203.599 53.4473 203.768 53.5161 203.999 53.5619C204.147 53.6077 204.252 53.6306 204.336 53.6535C204.421 53.6764 204.505 53.6993 204.61 53.7452C204.716 53.791 204.779 53.8139 204.842 53.8597C204.905 53.9056 204.947 53.9285 205.01 53.9972C205.053 54.043 205.095 54.1118 205.116 54.1576C205.137 54.2263 205.137 54.2951 205.137 54.3638C205.137 54.5471 205.074 54.6845 204.926 54.7991C204.779 54.8908 204.589 54.9595 204.336 54.9595C204.042 54.9595 203.768 54.8908 203.494 54.7762C203.22 54.6616 203.031 54.5242 202.904 54.3867L202.609 55.0053C202.841 55.2115 203.115 55.349 203.41 55.4635C203.705 55.5781 204.021 55.6239 204.336 55.6239C204.505 55.6239 204.673 55.601 204.821 55.5781C204.968 55.5552 205.116 55.5094 205.242 55.4406C205.368 55.3719 205.474 55.2802 205.579 55.1886C205.663 55.097 205.748 54.9595 205.79 54.822C205.832 54.6845 205.874 54.5242 205.874 54.3409C205.874 54.1805 205.853 54.043 205.811 53.9056C205.727 53.6994 205.684 53.5848 205.6 53.4931ZM207.285 51.6144H208.675V55.5094H209.349V51.6144H210.739V50.9729H207.306L207.285 51.6144ZM215.309 53.2869C215.457 53.0349 215.541 52.76 215.541 52.4621C215.541 52.2788 215.499 52.0955 215.436 51.9352C215.373 51.7519 215.288 51.5915 215.183 51.454C215.078 51.3165 214.93 51.202 214.783 51.1103C214.614 51.0187 214.446 50.9729 214.256 50.9729H212.445V55.4865H213.098V53.9056H214.067L214.972 55.4865H215.71L214.741 53.7681C214.972 53.6993 215.162 53.539 215.309 53.2869ZM214.256 53.2869H213.098V51.5915H214.214C214.383 51.5915 214.551 51.6831 214.678 51.8435C214.804 52.0039 214.867 52.2101 214.867 52.4392C214.867 52.6683 214.804 52.8745 214.699 53.0349C214.572 53.2182 214.425 53.2869 214.256 53.2869ZM220.343 53.264C220.343 53.4244 220.322 53.5848 220.301 53.7452C220.28 53.9056 220.238 54.043 220.175 54.1805C220.111 54.318 220.048 54.4325 219.964 54.5471C219.88 54.6387 219.774 54.7304 219.648 54.7991C219.522 54.8678 219.374 54.8908 219.185 54.8908C219.016 54.8908 218.869 54.8678 218.742 54.7991C218.616 54.7304 218.511 54.6616 218.426 54.57C218.342 54.4783 218.279 54.3409 218.216 54.2034C218.153 54.0659 218.111 53.9056 218.089 53.7681C218.068 53.6077 218.047 53.4473 218.047 53.2869V50.9958H217.394V53.2869C217.394 53.539 217.415 53.7681 217.458 53.9743C217.5 54.1805 217.563 54.3867 217.647 54.5929C217.731 54.7991 217.858 54.9595 217.984 55.097C218.111 55.2344 218.279 55.349 218.49 55.4406C218.7 55.5323 218.932 55.5552 219.185 55.5552C219.501 55.5552 219.774 55.4865 220.006 55.3719C220.238 55.2573 220.427 55.097 220.575 54.8678C220.722 54.6387 220.827 54.4096 220.891 54.1576C220.954 53.8826 220.996 53.6077 220.996 53.2869V50.9958H220.343V53.264ZM225.608 54.57C225.482 54.6845 225.356 54.7762 225.208 54.822C225.082 54.8678 224.934 54.8908 224.787 54.8908C224.534 54.8908 224.303 54.822 224.092 54.6616C223.881 54.5013 223.734 54.295 223.608 54.043C223.502 53.791 223.439 53.5161 223.439 53.2182C223.439 53.0578 223.46 52.8974 223.502 52.7371C223.544 52.5767 223.586 52.4392 223.671 52.3017C223.755 52.1643 223.839 52.0268 223.944 51.9352C224.05 51.8206 224.176 51.7519 224.324 51.6831C224.471 51.6144 224.618 51.5915 224.787 51.5915C224.892 51.5915 224.998 51.6144 225.103 51.6373C225.208 51.6602 225.292 51.706 225.398 51.7519C225.503 51.7977 225.587 51.8893 225.672 51.981C225.756 52.0726 225.819 52.1872 225.882 52.3246L226.388 51.9581C226.24 51.6602 226.051 51.4311 225.756 51.2478C225.482 51.0645 225.166 50.9729 224.787 50.9729C224.534 50.9729 224.303 51.0187 224.092 51.1103C223.881 51.202 223.692 51.3165 223.523 51.454C223.355 51.5915 223.228 51.7748 223.123 51.9581C223.018 52.1414 222.912 52.3476 222.87 52.5767C222.807 52.7829 222.786 53.012 222.786 53.2411C222.786 53.5161 222.828 53.791 222.912 54.043C222.997 54.318 223.123 54.5471 223.292 54.7762C223.46 54.9824 223.65 55.1657 223.881 55.3032C224.113 55.4406 224.366 55.5323 224.618 55.5552C224.829 55.7156 224.934 55.853 224.934 56.0363C224.934 56.128 224.913 56.1967 224.85 56.2654C224.787 56.3113 224.703 56.3342 224.597 56.3342C224.471 56.3342 224.324 56.2884 224.176 56.1967L224.008 56.5633C224.218 56.6779 224.45 56.7466 224.703 56.7466C224.913 56.7466 225.061 56.7008 225.166 56.5862C225.271 56.4716 225.335 56.3342 225.335 56.1509C225.335 55.9218 225.229 55.7156 225.04 55.5323C225.356 55.4864 225.629 55.3719 225.903 55.1886C226.156 55.0053 226.345 54.7762 226.451 54.5013L225.903 54.1576C225.84 54.318 225.735 54.4554 225.608 54.57ZM229.357 50.9729L227.736 55.4865H228.431L228.873 54.2492H230.473L230.916 55.4865H231.611L229.989 50.9729H229.357ZM228.978 53.7452L229.673 51.7748L230.347 53.7452H228.978ZM229.02 50.3772C229.02 50.3543 229.041 50.3084 229.062 50.2855C229.083 50.2397 229.104 50.2168 229.147 50.1939C229.189 50.171 229.231 50.148 229.294 50.148C229.357 50.148 229.441 50.171 229.505 50.2168C229.589 50.2626 229.673 50.3084 229.757 50.3543C229.842 50.4001 229.947 50.423 230.052 50.423C230.158 50.423 230.242 50.4001 230.326 50.3543C230.41 50.3084 230.473 50.2626 230.516 50.1939C230.558 50.1251 230.6 50.0564 230.642 49.9877C230.684 49.9189 230.705 49.8502 230.705 49.8044C230.726 49.7586 230.726 49.7127 230.726 49.6898H230.347C230.347 49.6898 230.347 49.7127 230.347 49.7356C230.347 49.7586 230.326 49.7815 230.326 49.8044C230.305 49.8273 230.305 49.8731 230.263 49.896C230.242 49.9189 230.2 49.9418 230.179 49.9648C230.136 49.9877 230.094 49.9877 230.031 49.9877C229.947 49.9877 229.884 49.9648 229.8 49.9189C229.715 49.8731 229.631 49.8273 229.547 49.7815C229.463 49.7356 229.357 49.7127 229.273 49.7127C229.189 49.7127 229.104 49.7356 229.02 49.7815C228.936 49.8273 228.894 49.8731 228.831 49.9418C228.789 50.0106 228.746 50.0793 228.725 50.148C228.683 50.2168 228.662 50.2855 228.662 50.3313C228.641 50.3772 228.641 50.423 228.641 50.4688H228.999C228.999 50.423 228.999 50.4001 229.02 50.3772ZM236.708 52.4163C236.602 52.1414 236.476 51.8893 236.307 51.6831C236.139 51.4769 235.928 51.2936 235.676 51.1562C235.423 51.0187 235.149 50.95 234.875 50.95C234.601 50.95 234.328 51.0187 234.075 51.1333C233.822 51.2707 233.612 51.4311 233.443 51.6373C233.275 51.8435 233.127 52.0955 233.022 52.3705C232.917 52.6454 232.874 52.9433 232.874 53.2411C232.874 53.4702 232.896 53.6993 232.959 53.9285C233.022 54.1576 233.106 54.3638 233.233 54.5471C233.359 54.7304 233.485 54.9137 233.654 55.0511C233.822 55.1886 233.991 55.3032 234.201 55.3948C234.412 55.4865 234.623 55.5323 234.875 55.5323C235.149 55.5323 235.423 55.4635 235.676 55.349C235.928 55.2344 236.139 55.0511 236.307 54.8449C236.476 54.6387 236.623 54.3867 236.729 54.1118C236.834 53.8368 236.876 53.539 236.876 53.2411C236.855 52.9662 236.813 52.6912 236.708 52.4163ZM236.097 53.8368C236.034 54.043 235.949 54.2034 235.844 54.3638C235.739 54.5242 235.591 54.6387 235.423 54.7304C235.254 54.822 235.065 54.8678 234.875 54.8678C234.623 54.8678 234.37 54.7991 234.18 54.6387C233.97 54.4783 233.822 54.2721 233.717 54.0201C233.612 53.7681 233.548 53.4931 233.548 53.2182C233.548 53.012 233.569 52.8058 233.633 52.6225C233.696 52.4163 233.78 52.2559 233.885 52.0955C233.991 51.9352 234.138 51.8206 234.307 51.729C234.475 51.6373 234.665 51.5915 234.875 51.5915C235.065 51.5915 235.254 51.6373 235.423 51.729C235.591 51.8206 235.739 51.9352 235.844 52.0955C235.949 52.2559 236.034 52.4163 236.097 52.6225C236.16 52.8287 236.202 53.0349 236.202 53.2411C236.181 53.4473 236.16 53.6535 236.097 53.8368Z" fill="white"/>
<path d="M144.712 5.35598H146.144C146.018 5.72257 145.66 6.04333 145.091 6.04333C144.291 6.04333 143.743 5.42472 143.743 4.55408C143.743 3.68344 144.291 3.019 145.07 3.019C145.575 3.019 145.997 3.27103 146.228 3.72926L147.45 2.95027C146.965 2.05671 146.06 1.52975 145.091 1.52975C143.553 1.52975 142.311 2.85862 142.311 4.55408C142.311 6.24954 143.532 7.5555 145.091 7.5555C146.544 7.5555 147.66 6.38701 147.66 4.5999V4.14167H144.712V5.35598ZM152.399 1.50684C150.841 1.50684 149.619 2.83571 149.619 4.53117C149.619 6.20371 150.841 7.5555 152.399 7.5555C153.937 7.5555 155.158 6.22663 155.158 4.53117C155.158 2.83571 153.937 1.50684 152.399 1.50684ZM152.399 5.95169C151.683 5.95169 151.135 5.33307 151.135 4.53117C151.135 3.72926 151.683 3.11065 152.399 3.11065C153.094 3.11065 153.621 3.72926 153.621 4.53117C153.621 5.33307 153.094 5.95169 152.399 5.95169ZM159.265 5.1956L158.044 1.64431H156.506L158.549 7.39512H159.981L162.045 1.64431H160.508L159.265 5.1956ZM163.899 7.39512H167.69V5.99751H165.331V5.14978H166.889V3.91255H165.331V3.06482H167.69V1.66722H163.899V7.39512ZM174.303 3.52306C174.303 2.44621 173.503 1.64431 172.471 1.64431H169.901V7.39512H171.312V5.40181H171.902L172.955 7.39512H174.535L173.355 5.17269C173.924 4.85193 174.303 4.25623 174.303 3.52306ZM172.302 4.09585H171.312V3.019H172.302C172.639 3.019 172.85 3.27103 172.85 3.56888C172.85 3.84382 172.639 4.09585 172.302 4.09585ZM179.842 4.69155L177.694 1.64431H176.493V7.39512H177.904V4.37079L180.031 7.39512H181.232V1.64431H179.821V4.69155H179.842ZM186.097 1.50684C184.539 1.50684 183.317 2.83571 183.317 4.53117C183.317 6.20371 184.539 7.5555 186.097 7.5555C187.635 7.5555 188.856 6.22663 188.856 4.53117C188.856 2.83571 187.614 1.50684 186.097 1.50684ZM186.097 5.95169C185.381 5.95169 184.833 5.33307 184.833 4.53117C184.833 3.72926 185.381 3.11065 186.097 3.11065C186.792 3.11065 187.319 3.72926 187.319 4.53117C187.319 5.33307 186.771 5.95169 186.097 5.95169ZM194.416 7.39512H195.848V5.28725H197.407V3.98129H195.848V2.99609H198.207V1.62139H194.416V7.39512ZM200.335 7.39512H204.126V5.99751H201.767V5.14978H203.325V3.91255H201.767V3.06482H204.126V1.66722H200.335V7.39512ZM208.485 1.64431H206.337V7.39512H208.485C210.107 7.39512 211.307 6.15789 211.307 4.50826C211.329 2.85862 210.107 1.64431 208.485 1.64431ZM208.422 5.90586H207.769V3.13356H208.422C209.264 3.13356 209.833 3.68344 209.833 4.50826C209.833 5.35598 209.264 5.90586 208.422 5.90586ZM213.371 7.39512H217.162V5.99751H214.804V5.14978H216.362V3.91255H214.804V3.06482H217.162V1.66722H213.371V7.39512ZM223.755 3.52306C223.755 2.44621 222.954 1.64431 221.922 1.64431H219.353V7.39512H220.764V5.40181H221.354L222.407 7.39512H223.986L222.807 5.17269C223.397 4.85193 223.755 4.25623 223.755 3.52306ZM221.775 4.09585H220.785V3.019H221.775C222.112 3.019 222.322 3.27103 222.322 3.56888C222.322 3.84382 222.112 4.09585 221.775 4.09585ZM227.777 1.64431L225.566 7.39512H227.061L227.419 6.40992H229.504L229.883 7.39512H231.358L229.125 1.64431H227.777ZM227.946 5.03522L228.472 3.6147L228.999 5.03522H227.946ZM234.728 5.92877V1.64431H233.232V7.39512H236.96V5.90586H234.728V5.92877Z" fill="white"/>
<path d="M236.96 13.65H227.314V33.7893H236.96V13.65Z" fill="white" stroke="black" stroke-width="2" stroke-miterlimit="10"/>
<path d="M246.606 33.7893H236.96V43.985H246.606V33.7893Z" fill="white" stroke="black" stroke-width="2" stroke-miterlimit="10"/>
<path d="M236.96 33.7893H227.314V43.985H236.96V33.7893Z" fill="white" stroke="black" stroke-width="2" stroke-miterlimit="10"/>
<path d="M225.692 13.65H216.046V43.985H225.692V13.65Z" fill="white" stroke="black" stroke-width="2" stroke-miterlimit="10"/>
<path d="M203.999 27.1219H194.88V43.9849H203.999V27.1219Z" fill="white" stroke="black" stroke-width="2" stroke-miterlimit="10"/>
<path d="M214.425 13.65H203.999V24.6705H214.425V13.65Z" fill="white" stroke="black" stroke-width="2" stroke-miterlimit="10"/>
<path d="M207.18 24.6704H203.999V43.962H207.18C212.087 43.962 216.046 39.6317 216.046 34.3162C216.046 29.0007 212.087 24.6704 207.18 24.6704Z" fill="white" stroke="black" stroke-width="2" stroke-miterlimit="10"/>
<path d="M201.072 13.65C197.66 13.65 194.88 16.6744 194.88 20.386C194.88 24.0977 197.66 27.122 201.072 27.122H203.999V13.65H201.072Z" fill="white" stroke="black" stroke-width="2" stroke-miterlimit="10"/>
<path d="M142.185 25.816H144.417C147.513 25.816 150.019 23.0896 150.019 19.7216C150.019 16.3536 147.513 13.6271 144.417 13.6271H142.185V25.816Z" fill="white" stroke="black" stroke-width="2" stroke-miterlimit="10"/>
<path d="M142.185 13.65H132.539V25.8161H142.185V13.65Z" fill="white" stroke="black" stroke-width="2" stroke-miterlimit="10"/>
<path d="M142.185 25.816H132.539V43.9849H142.185V25.816Z" fill="white" stroke="black" stroke-width="2" stroke-miterlimit="10"/>
<path d="M145.344 25.816H142.163V43.9849H145.344C149.956 43.9849 153.684 39.9296 153.684 34.9119C153.705 29.8714 149.956 25.816 145.344 25.816Z" fill="white" stroke="black" stroke-width="2" stroke-miterlimit="10"/>
<path d="M164.636 31.9563H153.705V43.9849H171.818L164.636 31.9563Z" fill="white" stroke="black" stroke-width="2" stroke-miterlimit="10"/>
<path d="M164.636 31.9564L153.705 13.65V31.9564H164.636Z" fill="white" stroke="black" stroke-width="2" stroke-miterlimit="10"/>
<path d="M164.636 13.65H153.684L164.636 31.9793C169.29 31.9793 173.06 27.8781 173.06 22.8147C173.06 17.7512 169.29 13.65 164.636 13.65Z" fill="white" stroke="black" stroke-width="2" stroke-miterlimit="10"/>
<path d="M183.128 13.65L166.531 43.985H199.703L183.128 13.65Z" fill="white" stroke="black" stroke-width="2" stroke-miterlimit="10"/>
<path d="M194.88 35.141V43.9849H199.703L194.88 35.141Z" fill="white" stroke="black" stroke-width="2" stroke-miterlimit="10"/>
<path d="M166.531 43.985H171.818L169.059 39.3568L166.531 43.985Z" fill="white" stroke="black" stroke-width="2" stroke-miterlimit="10"/>
<path d="M193.3 43.9849C193.3 37.8675 188.751 32.9186 183.128 32.9186C177.504 32.9186 172.955 37.8675 172.955 43.9849H193.3Z" fill="white" stroke="black" stroke-width="2" stroke-miterlimit="10"/>
<path d="M42.7543 19.7674V15.3913L41.0904 18.7134H40.5639L38.9001 15.3913V19.7674H38.0155V13.6271H38.9633L40.8377 17.3846L42.7122 13.6271H43.6599V19.7674H42.7543Z" fill="white"/>
<path d="M46.5244 19.7674V13.6271H47.4089V19.7674H46.5244Z" fill="white"/>
<path d="M51.1578 15.4371V19.7903H50.2732V13.6271H51.0103L54.2117 18.0719V13.65H55.1173V19.7903H54.317L51.1578 15.4371Z" fill="white"/>
<path d="M57.9606 19.7674V13.6271H58.8451V19.7674H57.9606Z" fill="white"/>
<path d="M65.0581 15.0704C64.9317 14.933 64.7211 14.7726 64.4263 14.658C64.1314 14.5205 63.8366 14.4518 63.5206 14.4518C63.1626 14.4518 62.8677 14.5205 62.6992 14.6809C62.5097 14.8184 62.4255 15.0475 62.4255 15.2995C62.4255 15.3912 62.4255 15.4599 62.4465 15.5287C62.4676 15.5974 62.4886 15.6661 62.5308 15.7119C62.5729 15.7578 62.615 15.8036 62.6782 15.8723C62.7414 15.9181 62.8046 15.964 62.8677 15.9869C62.9309 16.0098 63.0152 16.0556 63.1205 16.1014C63.2258 16.1473 63.3311 16.1702 63.4364 16.1931C63.5417 16.216 63.6681 16.2618 63.8155 16.3076C64.0682 16.3764 64.2788 16.4451 64.4473 16.4909C64.6158 16.5597 64.7843 16.6284 64.9528 16.743C65.1213 16.8346 65.2477 16.9492 65.353 17.0637C65.4583 17.1783 65.5215 17.3387 65.5846 17.4991C65.6478 17.6823 65.6689 17.8656 65.6689 18.0948C65.6689 18.3468 65.6268 18.553 65.5636 18.7592C65.5004 18.9654 65.3951 19.1258 65.2687 19.2632C65.1424 19.4007 64.9949 19.5153 64.8264 19.6069C64.6579 19.6986 64.4684 19.7673 64.2578 19.8131C64.0472 19.8589 63.8366 19.8819 63.6049 19.8819C63.1837 19.8819 62.7624 19.8131 62.3623 19.6757C61.9621 19.5382 61.6041 19.332 61.2881 19.057L61.6883 18.2322C61.8568 18.4155 62.1095 18.5988 62.4886 18.7592C62.8677 18.9196 63.2468 19.0112 63.6259 19.0112C63.984 19.0112 64.2578 18.9425 64.4473 18.805C64.6369 18.6675 64.7422 18.4842 64.7422 18.2322C64.7422 18.1406 64.7211 18.0489 64.7001 17.9573C64.679 17.8656 64.6158 17.7969 64.5526 17.7282C64.4895 17.6594 64.4052 17.6136 64.342 17.5678C64.2578 17.522 64.1735 17.4761 64.0261 17.4303C63.8787 17.3845 63.7734 17.3387 63.647 17.2928C63.5417 17.2699 63.3732 17.2241 63.1837 17.1554C62.8888 17.0637 62.6361 16.995 62.4465 16.9033C62.257 16.8117 62.0885 16.7201 61.941 16.5826C61.7936 16.4451 61.6883 16.3076 61.6251 16.1244C61.5619 15.9411 61.5198 15.7349 61.5198 15.5057C61.5198 15.2079 61.5619 14.933 61.6672 14.7038C61.7726 14.4747 61.92 14.2685 62.1095 14.1081C62.2991 13.9478 62.5097 13.8332 62.7624 13.7645C63.0152 13.6728 63.289 13.6499 63.5838 13.6499C64.2788 13.6499 64.9107 13.879 65.5004 14.3373L65.0581 15.0704Z" fill="white"/>
<path d="M72.3244 14.4976H70.4499V19.7902H69.5443V14.4976H67.6699V13.6499H72.3244V14.4976Z" fill="white"/>
<path d="M78.5374 18.9196V19.7673H74.6622V13.627H78.4743V14.4748H75.5678V16.216H78.0952V17.0179H75.5678V18.8967H78.5374V18.9196ZM76.9578 13.0084L76.3892 12.8251L76.8525 11.8857H77.695L76.9578 13.0084Z" fill="white"/>
<path d="M81.0438 19.7674V13.6271H83.5079C83.7607 13.6271 83.9923 13.6958 84.2029 13.8104C84.4346 13.9249 84.6031 14.0853 84.7505 14.2686C84.898 14.4519 85.0243 14.681 85.1086 14.9101C85.1928 15.1392 85.2349 15.3913 85.2349 15.6433C85.2349 16.0557 85.1296 16.4452 84.9401 16.766C84.7295 17.1096 84.4767 17.3388 84.1398 17.4533L85.4666 19.7903H84.4557L83.2341 17.6595H81.9283V19.7903H81.0438V19.7674ZM81.9283 16.7889H83.4869C83.7396 16.7889 83.9292 16.6743 84.0976 16.4452C84.2661 16.2161 84.3293 15.9411 84.3293 15.6204C84.3293 15.2996 84.2451 15.0476 84.0555 14.8185C83.866 14.5894 83.6554 14.4748 83.4237 14.4748H81.9073V16.7889H81.9283Z" fill="white"/>
<path d="M87.8886 19.7674V13.6271H88.7732V19.7674H87.8886Z" fill="white"/>
<path d="M91.3005 16.6972C91.3005 16.2848 91.3637 15.8953 91.5111 15.5287C91.6585 15.1392 91.8481 14.8184 92.0797 14.5435C92.3114 14.2686 92.6063 14.0394 92.9433 13.8562C93.2802 13.6729 93.6383 13.6041 94.0174 13.6041C94.4175 13.6041 94.7756 13.6958 95.1126 13.8791C95.4495 14.0624 95.7444 14.2915 95.9761 14.5893C96.2077 14.8872 96.3762 15.2079 96.5237 15.5974C96.65 15.964 96.7132 16.3535 96.7132 16.743C96.7132 17.1554 96.65 17.5449 96.5026 17.9115C96.3552 18.2781 96.1867 18.6218 95.9339 18.8967C95.7023 19.1716 95.4074 19.4008 95.0704 19.5841C94.7335 19.7444 94.3754 19.8361 93.9963 19.8361C93.6804 19.8361 93.3855 19.7903 93.0907 19.6757C92.7958 19.5611 92.5641 19.4008 92.3325 19.1946C92.1008 18.9883 91.9323 18.7592 91.7638 18.5072C91.5953 18.2552 91.49 17.9573 91.4058 17.6595C91.3426 17.3387 91.3005 17.018 91.3005 16.6972ZM93.9963 18.9425C94.2701 18.9425 94.5228 18.8738 94.7545 18.7592C94.9862 18.6218 95.1757 18.4614 95.3232 18.2552C95.4706 18.049 95.5759 17.7969 95.6602 17.5449C95.7444 17.27 95.7865 17.018 95.7865 16.7201C95.7865 16.4223 95.7444 16.1473 95.6602 15.8724C95.5759 15.5974 95.4495 15.3683 95.3021 15.1621C95.1547 14.9559 94.9651 14.7955 94.7335 14.6581C94.5018 14.5435 94.2701 14.4748 93.9963 14.4748C93.7225 14.4748 93.4698 14.5435 93.2381 14.6581C93.0064 14.7726 92.8169 14.9559 92.6695 15.1621C92.522 15.3683 92.3957 15.6203 92.3114 15.8724C92.2272 16.1473 92.185 16.3993 92.185 16.6972C92.185 17.0867 92.2482 17.4533 92.3957 17.7969C92.5431 18.1406 92.7537 18.4156 93.0275 18.6218C93.3224 18.828 93.6383 18.9425 93.9963 18.9425Z" fill="white"/>
<path d="M102.779 19.7674V13.6271H104.78C105.222 13.6271 105.622 13.6958 105.98 13.8562C106.338 14.0166 106.633 14.2457 106.844 14.5206C107.054 14.7956 107.244 15.1163 107.349 15.4829C107.476 15.8495 107.518 16.239 107.518 16.6743C107.518 17.6137 107.265 18.3469 106.76 18.9197C106.254 19.4924 105.601 19.7674 104.759 19.7674H102.779ZM104.78 14.4977H103.664V18.9197H104.78C105.159 18.9197 105.496 18.828 105.791 18.6218C106.065 18.4156 106.275 18.1636 106.423 17.8199C106.57 17.4762 106.633 17.1096 106.633 16.6743C106.633 16.0099 106.465 15.4829 106.149 15.0705C105.812 14.7039 105.348 14.4977 104.78 14.4977Z" fill="white"/>
<path d="M111.498 13.6271H112.341L114.531 19.7674H113.583L112.994 18.0948H110.824L110.235 19.7674H109.287L111.498 13.6271ZM112.825 17.3846L111.92 14.681L110.993 17.3846H112.825Z" fill="white"/>
<path d="M2.75902 25.6785C3.26449 25.6785 3.70678 25.793 4.10694 26.0451C4.50711 26.2971 4.7809 26.6178 4.97046 27.0302L4.12801 27.6718C4.04376 27.4427 3.91739 27.2823 3.7489 27.1219C3.58041 26.9844 3.43298 26.8928 3.26449 26.824C3.096 26.7782 2.92751 26.7324 2.73796 26.7324C2.46417 26.7324 2.23249 26.8011 2.02188 26.9157C1.81127 27.0302 1.64278 27.1906 1.49535 27.3968C1.34792 27.603 1.26368 27.8092 1.20049 28.0384C1.13731 28.2675 1.09519 28.5195 1.09519 28.7715C1.09519 29.1381 1.15837 29.4818 1.3058 29.7796C1.45323 30.1004 1.64278 30.3524 1.89551 30.5357C2.14825 30.719 2.4431 30.8336 2.75902 30.8336C2.94858 30.8336 3.11706 30.8107 3.28555 30.7419C3.45405 30.6732 3.62254 30.5815 3.79103 30.4441C3.95952 30.3066 4.06482 30.1233 4.14907 29.9171L5.0547 30.4899C4.94939 30.7878 4.75984 31.0398 4.50711 31.2689C4.25437 31.498 3.98058 31.6584 3.66466 31.773C3.34874 31.8875 3.05388 31.9333 2.73796 31.9333C2.42204 31.9333 2.12719 31.8646 1.83233 31.75C1.53747 31.6355 1.28474 31.4751 1.07412 31.2689C0.863511 31.0627 0.67396 30.8336 0.50547 30.5586C0.33698 30.2837 0.210612 30.0088 0.126367 29.688C0.0421222 29.3901 0 29.0694 0 28.7715C0 28.4049 0.0631841 28.0155 0.189552 27.6489C0.315919 27.2823 0.50547 26.9615 0.737144 26.6637C0.968818 26.3658 1.26368 26.1367 1.62172 25.9534C1.93764 25.7701 2.3378 25.6785 2.75902 25.6785Z" fill="white"/>
<path d="M7.37134 31.8417V25.7014H8.46652V31.8417H7.37134Z" fill="white"/>
<path d="M15.143 30.8107V31.8647H11.2256V25.7244H15.0799V26.7783H12.3208V28.2675H14.7008V29.2298H12.3208V30.8336H15.143V30.8107ZM12.0049 24.8079L12.8474 23.9373H13.6266L14.4691 24.8079L13.9215 25.0828L13.2475 24.533L12.5736 25.0828L12.0049 24.8079Z" fill="white"/>
<path d="M18.7024 27.9009V31.8417H17.6072V25.7014H18.4918L21.4193 29.7568V25.7243H22.5145V31.8646H21.6089L18.7024 27.9009Z" fill="white"/>
<path d="M27.6955 25.6785C28.201 25.6785 28.6432 25.793 29.0434 26.0451C29.4436 26.2971 29.7174 26.6178 29.9069 27.0302L29.0645 27.6718C28.9802 27.4427 28.8539 27.2823 28.6854 27.1219C28.5169 26.9844 28.3694 26.8928 28.201 26.824C28.0325 26.7782 27.864 26.7324 27.6744 26.7324C27.4006 26.7324 27.169 26.8011 26.9583 26.9157C26.7477 27.0302 26.5792 27.1906 26.4318 27.3968C26.2844 27.603 26.2001 27.8092 26.137 28.0384C26.0738 28.2675 26.0316 28.5195 26.0316 28.7715C26.0316 29.1381 26.0948 29.4818 26.2423 29.7796C26.3897 30.1004 26.5792 30.3524 26.832 30.5357C27.0847 30.719 27.3796 30.8336 27.6955 30.8336C27.885 30.8336 28.0535 30.8107 28.222 30.7419C28.3905 30.6732 28.559 30.5815 28.7275 30.4441C28.896 30.3066 29.0013 30.1233 29.0855 29.9171L29.9912 30.4899C29.8859 30.7878 29.6963 31.0398 29.4436 31.2689C29.1908 31.498 28.917 31.6584 28.6011 31.773C28.2852 31.8875 27.9903 31.9333 27.6744 31.9333C27.3585 31.9333 27.0636 31.8646 26.7688 31.75C26.4739 31.6355 26.2212 31.4751 26.0106 31.2689C25.8 31.0627 25.6104 30.8336 25.4419 30.5586C25.2734 30.2837 25.1471 30.0088 25.0628 29.688C24.9786 29.3901 24.9365 29.0694 24.9365 28.7715C24.9365 28.4049 24.9996 28.0155 25.126 27.6489C25.2524 27.2823 25.4419 26.9615 25.6736 26.6637C25.9053 26.3658 26.2001 26.1367 26.5582 25.9534C26.8741 25.7701 27.2743 25.6785 27.6955 25.6785Z" fill="white"/>
<path d="M32.308 31.8417V25.7014H33.4032V31.8417H32.308Z" fill="white"/>
<path d="M37.6996 25.7014H38.8158L40.9009 31.8417H39.7636L39.237 30.3066H37.2573L36.7308 31.8417H35.5934L37.6996 25.7014ZM39.0475 29.4818L38.2682 26.9386L37.4468 29.4818H39.0475Z" fill="white"/>
<path d="M43.0914 32.8498L43.302 31.8188H42.965V30.6045H43.8917V31.8188L43.5758 32.8498H43.0914Z" fill="white"/>
<path d="M54.0432 26.7553H52.232V31.8417H51.1368V26.7553H49.3255V25.7014H54.0222V26.7553H54.0432Z" fill="white"/>
<path d="M60.2563 30.8107V31.8647H56.3389V25.7244H60.1931V26.7783H57.434V28.2676H59.7929V29.2298H57.413V30.8337H60.2563V30.8107Z" fill="white"/>
<path d="M65.0372 25.6785C65.5426 25.6785 65.9849 25.793 66.3851 26.0451C66.7852 26.2971 67.059 26.6178 67.2486 27.0302L66.4061 27.6718C66.3219 27.4427 66.1955 27.2823 66.027 27.1219C65.8586 26.9844 65.7111 26.8928 65.5426 26.824C65.3741 26.7782 65.2057 26.7324 65.0161 26.7324C64.7423 26.7324 64.5106 26.8011 64.3 26.9157C64.0894 27.0302 63.9209 27.1906 63.7735 27.3968C63.6261 27.603 63.5418 27.8092 63.4786 28.0384C63.4154 28.2675 63.3733 28.5195 63.3733 28.7715C63.3733 29.1381 63.4365 29.4818 63.5839 29.7796C63.7314 30.1004 63.9209 30.3524 64.1736 30.5357C64.4264 30.719 64.7212 30.8336 65.0372 30.8336C65.2267 30.8336 65.3952 30.8107 65.5637 30.7419C65.7322 30.6732 65.9007 30.5815 66.0692 30.4441C66.2377 30.3066 66.343 30.1233 66.4272 29.9171L67.3328 30.4899C67.2275 30.7878 67.038 31.0398 66.7853 31.2689C66.5325 31.498 66.2587 31.6584 65.9428 31.773C65.6269 31.8875 65.332 31.9333 65.0161 31.9333C64.7002 31.9333 64.4053 31.8646 64.1105 31.75C63.8156 31.6355 63.5629 31.4751 63.3523 31.2689C63.1416 31.0627 62.9521 30.8336 62.7836 30.5586C62.6151 30.2837 62.4888 30.0088 62.4045 29.688C62.3203 29.3901 62.2781 29.0694 62.2781 28.7715C62.2781 28.4049 62.3413 28.0155 62.4677 27.6489C62.5941 27.2823 62.7836 26.9615 63.0153 26.6637C63.247 26.3658 63.5418 26.1367 63.8999 25.9534C64.2158 25.7701 64.6159 25.6785 65.0372 25.6785Z" fill="white"/>
<path d="M70.7237 27.9009V31.8417H69.6285V25.7014H70.513L73.4406 29.7568V25.7243H74.5357V31.8646H73.6301L70.7237 27.9009Z" fill="white"/>
<path d="M76.9579 28.7715C76.9579 28.3591 77.0211 27.9696 77.1685 27.603C77.3159 27.2135 77.5055 26.8928 77.7372 26.6178C77.9688 26.3429 78.2637 26.1138 78.6217 25.9305C78.9587 25.7472 79.3378 25.6785 79.738 25.6785C80.0539 25.6785 80.3698 25.7472 80.6436 25.8618C80.9385 25.9763 81.1912 26.1367 81.4018 26.3429C81.6124 26.5491 81.802 26.7782 81.9705 27.0532C82.139 27.3052 82.2653 27.603 82.3496 27.9009C82.4338 28.1987 82.4759 28.5195 82.4759 28.8174C82.4759 29.2298 82.4128 29.6193 82.2653 29.9858C82.1179 30.3524 81.9283 30.6961 81.6967 30.971C81.465 31.246 81.1701 31.4751 80.8121 31.6584C80.4751 31.8188 80.096 31.9104 79.7169 31.9104C79.401 31.9104 79.0851 31.8646 78.7902 31.75C78.4954 31.6355 78.2426 31.4751 78.032 31.2689C77.8214 31.0627 77.6108 30.8336 77.4634 30.5815C77.2949 30.3295 77.1685 30.0317 77.0843 29.7338C77 29.3901 76.9579 29.0923 76.9579 28.7715ZM79.7169 30.8336C79.9696 30.8336 80.2013 30.7648 80.4119 30.6503C80.6225 30.5357 80.791 30.3753 80.9385 30.1691C81.0648 29.9629 81.1701 29.7567 81.2544 29.5047C81.3386 29.2527 81.3597 29.0006 81.3597 28.7486C81.3597 28.382 81.2965 28.0613 81.1701 27.7405C81.0438 27.4427 80.8542 27.1906 80.6015 26.9844C80.3487 26.8011 80.0539 26.6866 79.738 26.6866C79.4852 26.6866 79.2536 26.7553 79.0429 26.8699C78.8323 26.9844 78.6638 27.1448 78.5164 27.3281C78.39 27.5114 78.2847 27.7405 78.2005 27.9925C78.1163 28.2446 78.0952 28.4737 78.0952 28.7486C78.0952 29.1152 78.1584 29.436 78.2847 29.7567C78.4111 30.0546 78.6007 30.3295 78.8534 30.5128C79.0851 30.7419 79.3799 30.8336 79.7169 30.8336Z" fill="white"/>
<path d="M84.8979 31.8417V25.7014H85.9931V30.7878H88.8785V31.8417H84.8979Z" fill="white"/>
<path d="M90.6686 28.7715C90.6686 28.3591 90.7318 27.9696 90.8793 27.603C91.0267 27.2135 91.2162 26.8928 91.4479 26.6178C91.6796 26.3429 91.9744 26.1138 92.3325 25.9305C92.6695 25.7472 93.0486 25.6785 93.4487 25.6785C93.7646 25.6785 94.0806 25.7472 94.3544 25.8618C94.6492 25.9763 94.902 26.1367 95.1126 26.3429C95.3232 26.5491 95.5127 26.7782 95.6812 27.0532C95.8497 27.3052 95.9761 27.603 96.0603 27.9009C96.1446 28.1987 96.1867 28.5195 96.1867 28.8174C96.1867 29.2298 96.1235 29.6193 95.9761 29.9858C95.8286 30.3524 95.6391 30.6961 95.4074 30.971C95.1757 31.246 94.8809 31.4751 94.5229 31.6584C94.1859 31.8188 93.8068 31.9104 93.4277 31.9104C93.1117 31.9104 92.7958 31.8646 92.501 31.75C92.2061 31.6355 91.9534 31.4751 91.7428 31.2689C91.5322 31.0627 91.3215 30.8336 91.1741 30.5815C91.0056 30.3295 90.8793 30.0317 90.795 29.7338C90.7108 29.3901 90.6686 29.0923 90.6686 28.7715ZM93.4277 30.8336C93.6804 30.8336 93.9121 30.7648 94.1227 30.6503C94.3333 30.5357 94.5018 30.3753 94.6492 30.1691C94.7756 29.9629 94.8809 29.7567 94.9651 29.5047C95.0494 29.2527 95.0704 29.0006 95.0704 28.7486C95.0704 28.382 95.0073 28.0613 94.8809 27.7405C94.7545 27.4427 94.565 27.1906 94.3122 26.9844C94.0595 26.8011 93.7646 26.6866 93.4487 26.6866C93.196 26.6866 92.9643 26.7553 92.7537 26.8699C92.5431 26.9844 92.3746 27.1448 92.2272 27.3281C92.1008 27.5114 91.9955 27.7405 91.9113 27.9925C91.827 28.2446 91.8059 28.4737 91.8059 28.7486C91.8059 29.1152 91.8691 29.436 91.9955 29.7567C92.1219 30.0546 92.3114 30.3295 92.5642 30.5128C92.7958 30.7419 93.0907 30.8336 93.4277 30.8336Z" fill="white"/>
<path d="M101.389 28.6799H103.432V31.8417H102.526V31.1314C102.063 31.6355 101.536 31.8646 100.947 31.8646C100.462 31.8646 99.9987 31.7271 99.5986 31.4522C99.1984 31.1773 98.8614 30.7878 98.6298 30.3066C98.3981 29.8255 98.2717 29.2985 98.2717 28.7028C98.2717 28.2904 98.3349 27.9009 98.4823 27.5114C98.6298 27.1448 98.8193 26.8011 99.051 26.5262C99.2827 26.2513 99.5775 26.0222 99.9356 25.8618C100.273 25.7014 100.631 25.6097 101.031 25.6097C101.557 25.6097 102 25.7243 102.379 25.9763C102.758 26.2284 103.053 26.5491 103.242 26.9615L102.421 27.626C102.273 27.3281 102.084 27.099 101.831 26.9386C101.578 26.7782 101.283 26.6866 100.989 26.6866C100.673 26.6866 100.399 26.7782 100.146 26.9615C99.8934 27.1448 99.7039 27.3968 99.5775 27.7176C99.4512 28.0384 99.388 28.382 99.388 28.7486C99.388 29.3214 99.5565 29.8255 99.8724 30.215C100.188 30.6045 100.588 30.8107 101.073 30.8107C101.62 30.8107 102.105 30.5357 102.547 29.9629V29.5734H101.41L101.389 28.6799Z" fill="white"/>
<path d="M105.98 31.8417V25.7014H107.075V31.8417H105.98Z" fill="white"/>
<path d="M111.372 25.7014H112.488L114.573 31.8417H113.436L112.909 30.3066H110.93L110.403 31.8417H109.287L111.372 25.7014ZM112.699 29.4818L111.92 26.9386L111.098 29.4818H112.699Z" fill="white"/>
<path d="M57.1391 42.8623V43.9162H53.2217V37.7759H57.076V38.8298H54.3169V40.3191H56.6968V41.2814H54.3169V42.8852H57.1391V42.8623Z" fill="white"/>
<path d="M63.0784 43.9162V37.7759H64.1736V43.9162H63.0784Z" fill="white"/>
<path d="M68.0489 39.9754V43.9162H66.9537V37.7759H67.8383L70.7658 41.8312V37.7988H71.861V43.9391H70.9554L68.0489 39.9754Z" fill="white"/>
<path d="M74.2619 40.846C74.2619 40.4336 74.3251 40.0441 74.4725 39.6775C74.6199 39.288 74.8095 38.9672 75.0412 38.6923C75.2728 38.4174 75.5677 38.1883 75.9257 38.005C76.2627 37.8217 76.6418 37.7529 77.042 37.7529C77.3579 37.7529 77.6738 37.8217 77.9476 37.9362C78.2425 38.0508 78.4952 38.2112 78.7058 38.4174C78.9164 38.6236 79.106 38.8527 79.2745 39.1276C79.443 39.4026 79.5693 39.6775 79.6536 39.9754C79.7378 40.2732 79.7799 40.594 79.7799 40.8918C79.7799 41.3042 79.7168 41.6937 79.5693 42.0603C79.4219 42.4269 79.2324 42.7706 79.0007 43.0455C78.769 43.3204 78.4742 43.5496 78.1161 43.7329C77.7791 43.8932 77.4 43.9849 77.0209 43.9849C76.705 43.9849 76.3891 43.9391 76.0942 43.8245C75.7994 43.7099 75.5466 43.5496 75.336 43.3434C75.1254 43.1372 74.9148 42.908 74.7674 42.656C74.5989 42.404 74.4725 42.1061 74.3883 41.8083C74.304 41.4646 74.2619 41.1668 74.2619 40.846ZM77.0209 42.908C77.2737 42.908 77.5053 42.8393 77.7159 42.7247C77.9266 42.6102 78.095 42.4498 78.2425 42.2436C78.3688 42.0374 78.4742 41.8312 78.5584 41.5792C78.6426 41.3271 78.6637 41.0751 78.6637 40.8231C78.6637 40.4565 78.6005 40.1357 78.4742 39.815C78.3478 39.5171 78.1582 39.2651 77.9055 39.0589C77.6528 38.8756 77.3579 38.761 77.042 38.761C76.7892 38.761 76.5576 38.8298 76.347 38.9443C76.1364 39.0589 75.9679 39.2193 75.8204 39.4026C75.6941 39.5859 75.5888 39.815 75.5045 40.067C75.4203 40.319 75.3992 40.5481 75.3992 40.8231C75.3992 41.1897 75.4624 41.5104 75.5888 41.8312C75.7151 42.129 75.9047 42.404 76.1574 42.5873C76.3891 42.8164 76.6839 42.908 77.0209 42.908Z" fill="white"/>
<path d="M82.5812 37.7759L84.0976 42.4957L85.614 37.7759H86.7723L84.6241 43.9162H83.571L81.4228 37.7759H82.5812Z" fill="white"/>
<path d="M90.0369 37.7759H91.1531L93.2382 43.9162H92.1009L91.5743 42.3811H89.5946L89.068 43.9162H87.9307L90.0369 37.7759ZM91.3848 41.5563L90.6055 39.0131L89.7841 41.5563H91.3848Z" fill="white"/>
<path d="M99.9567 42.5415C99.8092 42.9081 99.5565 43.2288 99.1985 43.4809C98.8404 43.7329 98.4403 43.8704 98.019 43.9391C98.2928 44.1911 98.4192 44.489 98.4192 44.8097C98.4192 45.0618 98.335 45.268 98.1875 45.4284C98.019 45.5887 97.8084 45.6575 97.5136 45.6575C97.1976 45.6575 96.8817 45.5658 96.5658 45.4054L96.8396 44.7868C97.0081 44.9014 97.1766 44.9701 97.3451 44.9701C97.4925 44.9701 97.5978 44.9472 97.661 44.8785C97.7452 44.8097 97.7874 44.7181 97.7874 44.5806C97.7874 44.3515 97.661 44.1453 97.4083 43.962C97.0502 43.9162 96.7132 43.8016 96.3973 43.6183C96.0814 43.4121 95.8076 43.183 95.597 42.8852C95.3864 42.5873 95.2179 42.2666 95.0915 41.9C94.9652 41.5334 94.902 41.1668 94.902 40.8002C94.902 40.4336 94.9652 40.0441 95.0915 39.6776C95.2179 39.311 95.4074 38.9902 95.6391 38.6924C95.8708 38.3945 96.1657 38.1654 96.5237 37.9821C96.8817 37.7988 97.2819 37.7072 97.7031 37.7072C98.2086 37.7072 98.6509 37.8217 99.051 38.0737C99.4512 38.3258 99.725 38.6465 99.9146 39.0589L99.0721 39.7005C98.9879 39.4713 98.8615 39.311 98.693 39.1506C98.5245 39.0131 98.3771 38.9215 98.2086 38.8527C98.0401 38.784 97.8716 38.7611 97.6821 38.7611C97.4083 38.7611 97.1766 38.8298 96.966 38.9444C96.7554 39.0589 96.5869 39.2193 96.4394 39.4255C96.3131 39.6317 96.2078 39.8379 96.1446 40.09C96.0814 40.342 96.0393 40.5711 96.0393 40.8231C96.0393 41.1897 96.1025 41.5334 96.2499 41.8312C96.3973 42.152 96.5869 42.404 96.8396 42.5873C97.0924 42.7706 97.3872 42.8852 97.7031 42.8852C97.8927 42.8852 98.0612 42.8623 98.2297 42.7935C98.3981 42.7248 98.5666 42.6331 98.7351 42.4957C98.9036 42.3582 99.0089 42.1749 99.0932 41.9687L99.9567 42.5415Z" fill="white"/>
<path d="M103.727 37.7758H104.843L106.928 43.9161H105.791L105.264 42.381H103.284L102.758 43.9161H101.621L103.727 37.7758ZM103.769 36.7219C103.706 36.7219 103.642 36.7448 103.6 36.7677C103.558 36.7906 103.516 36.8364 103.495 36.8593C103.474 36.9051 103.453 36.9281 103.432 36.9739C103.411 37.0197 103.411 37.0426 103.411 37.0884C103.411 37.1343 103.411 37.1343 103.411 37.1343H102.821C102.821 37.0884 102.821 37.0197 102.842 36.9281C102.863 36.8364 102.884 36.7448 102.947 36.6531C102.99 36.5386 103.053 36.4469 103.116 36.3553C103.179 36.2636 103.263 36.1949 103.39 36.1262C103.516 36.0574 103.621 36.0345 103.748 36.0345C103.853 36.0345 103.958 36.0574 104.064 36.1032C104.169 36.1491 104.253 36.1949 104.316 36.2407C104.38 36.2865 104.464 36.3324 104.548 36.3782C104.632 36.424 104.717 36.4469 104.801 36.4469C104.864 36.4469 104.927 36.424 104.99 36.4011C105.054 36.3782 105.096 36.3324 105.117 36.3094C105.138 36.2865 105.159 36.2407 105.18 36.1949C105.201 36.1491 105.201 36.1262 105.222 36.0803C105.222 36.0574 105.222 36.0345 105.222 36.0116H105.812C105.812 36.0574 105.812 36.1032 105.791 36.1949C105.77 36.2636 105.728 36.3782 105.685 36.4698C105.643 36.5844 105.58 36.676 105.496 36.7677C105.412 36.8593 105.327 36.951 105.222 37.0197C105.096 37.0884 104.969 37.1114 104.843 37.1114C104.717 37.1114 104.569 37.0884 104.464 37.0197C104.338 36.951 104.232 36.8822 104.106 36.8364C103.958 36.7448 103.853 36.7219 103.769 36.7219ZM105.075 41.5562L104.295 39.013L103.474 41.5562H105.075Z" fill="white"/>
<path d="M108.571 40.846C108.571 40.4336 108.634 40.0441 108.781 39.6775C108.929 39.288 109.118 38.9672 109.35 38.6923C109.582 38.4174 109.877 38.1883 110.235 38.005C110.572 37.8217 110.951 37.7529 111.351 37.7529C111.667 37.7529 111.983 37.8217 112.257 37.9362C112.551 38.0508 112.804 38.2112 113.015 38.4174C113.225 38.6236 113.415 38.8527 113.583 39.1276C113.752 39.4026 113.878 39.6775 113.962 39.9754C114.047 40.2732 114.089 40.594 114.089 40.8918C114.089 41.3042 114.026 41.6937 113.878 42.0603C113.731 42.4269 113.541 42.7706 113.31 43.0455C113.078 43.3204 112.783 43.5496 112.425 43.7329C112.088 43.8932 111.709 43.9849 111.33 43.9849C111.014 43.9849 110.698 43.9391 110.403 43.8245C110.108 43.7099 109.856 43.5496 109.645 43.3434C109.434 43.1372 109.224 42.908 109.076 42.656C108.908 42.404 108.781 42.1061 108.697 41.8083C108.613 41.4646 108.571 41.1668 108.571 40.846ZM111.33 42.908C111.583 42.908 111.814 42.8393 112.025 42.7247C112.235 42.6102 112.404 42.4498 112.551 42.2436C112.678 42.0374 112.783 41.8312 112.867 41.5792C112.952 41.3271 112.973 41.0751 112.973 40.8231C112.973 40.4565 112.909 40.1357 112.783 39.815C112.657 39.5171 112.467 39.2651 112.214 39.0589C111.962 38.8756 111.667 38.761 111.351 38.761C111.098 38.761 110.866 38.8298 110.656 38.9443C110.445 39.0589 110.277 39.2193 110.129 39.4026C110.003 39.5859 109.898 39.815 109.813 40.067C109.729 40.319 109.708 40.5481 109.708 40.8231C109.708 41.1897 109.771 41.5104 109.898 41.8312C110.024 42.129 110.214 42.404 110.466 42.5873C110.719 42.8164 111.014 42.908 111.33 42.908Z" fill="white"/>
</g>
<defs>
<clipPath id="clip0_493_817">
<rect width="250" height="56" fill="white"/>
</clipPath>
</defs>
</svg>
