<svg width="156" height="90" viewBox="0 0 156 90" fill="none" xmlns="http://www.w3.org/2000/svg">
<path d="M156 40.0169V49.1683H126.297V3.12242H136.755V40.0156H156V40.0169ZM18.6643 49.167C29.3783 49.167 38.3829 41.8485 40.9515 31.9378L67.0007 52.2894L93.033 31.9508V49.167H122.736V40.0156H103.491V3.12242H93.033V20.3386L68.0614 39.8479L62.477 35.484L74.4311 26.1441L87.4472 15.9748L80.0155 10.168L55.044 29.6773L49.4595 25.3147L74.4311 5.80546L67.0007 0L40.9515 20.3516C38.3829 10.441 29.3783 3.12242 18.6643 3.12242H0V49.167H18.6643ZM10.4579 40.0169V12.2739H18.6643C25.6033 12.2739 31.2281 18.4849 31.2281 26.1454C31.2281 33.8058 25.6033 40.0169 18.6643 40.0169H10.4579Z" fill="white"/>
<path d="M155.999 78.878C155.999 76.1247 154.469 74.9015 151.409 74.2892C148.35 73.6783 146.516 73.3715 146.516 71.2305C146.516 69.7018 147.739 68.7828 149.881 68.7828C152.635 68.7828 153.552 70.006 153.552 71.536L153.858 71.8415H155.081L155.388 71.536C155.388 68.4773 152.939 67.2528 149.88 67.2528C146.514 67.2528 144.68 69.0896 144.68 71.2305C144.68 73.6783 146.516 74.9015 149.573 75.5125C152.633 76.1247 154.162 76.4302 154.162 78.878C154.162 80.4067 153.245 81.6312 150.185 81.6312C147.432 81.6312 146.209 80.1012 146.209 78.2657L145.904 77.9602H144.68L144.375 78.2657C144.375 81.019 146.516 83.1599 150.187 83.1599C154.163 83.1599 155.999 81.3257 155.999 78.878ZM142.846 75.8193L143.15 75.5125V74.596C143.15 70.3128 140.702 67.2528 136.421 67.2528C132.139 67.2528 129.691 70.3128 129.691 74.596V75.207C129.691 79.4889 131.833 83.1599 136.727 83.1599C141.009 83.1599 142.539 80.4067 142.846 78.5712L142.539 78.2657H141.316L141.011 78.5712C140.398 80.408 139.174 81.6312 136.729 81.6312C132.751 81.6312 131.528 77.9602 131.528 76.1247L131.834 75.8193H142.846ZM141.009 74.2892H131.832L131.525 73.9838C131.525 71.8415 132.748 68.7841 136.419 68.7841C140.09 68.7841 141.313 71.8428 141.313 73.9838L141.009 74.2892ZM127.549 82.549V67.8637L127.243 67.5582H126.02L125.714 67.8637V82.549L126.02 82.8544H127.243L127.549 82.549ZM127.549 64.805V62.9695L127.243 62.664H126.02L125.714 62.9695V64.805L126.02 65.1118H127.243L127.549 64.805ZM115.926 81.6312C112.866 81.6312 111.03 79.4889 111.03 75.207C111.03 70.9237 112.867 68.7828 115.926 68.7828C118.983 68.7828 120.819 70.9237 120.819 75.207C120.819 79.4889 118.983 81.6312 115.926 81.6312ZM120.819 80.7135C120.819 84.6899 119.901 87.75 116.23 87.75C113.477 87.75 112.559 86.5267 112.254 84.9967L111.948 84.6899H110.725L110.419 84.9967C110.725 87.4445 112.56 89.2787 116.231 89.2787C120.209 89.2787 122.656 86.8309 122.656 80.7135V67.8637L122.35 67.5582H121.432L121.127 67.8637L120.821 69.7018H120.515C119.904 68.4786 118.374 67.2528 115.62 67.2528C111.339 67.2528 109.196 70.6183 109.196 75.207C109.196 79.7944 111.339 83.1599 115.62 83.1599C118.375 83.1599 119.904 81.938 120.515 80.7122H120.819V80.7135ZM100.937 68.7828C103.995 68.7828 106.135 71.2305 106.135 75.207C106.135 79.1835 103.994 81.6312 100.937 81.6312C97.8765 81.6312 95.7355 79.1835 95.7355 75.207C95.7342 71.2305 97.8765 68.7828 100.937 68.7828ZM100.937 83.1599C104.913 83.1599 107.972 80.4067 107.972 75.207C107.972 70.006 104.913 67.2528 100.937 67.2528C96.9587 67.2528 93.9 70.0073 93.9 75.207C93.9 80.408 96.9575 83.1599 100.937 83.1599ZM91.7578 82.549V61.7463L91.4523 61.4408H90.229L89.9223 61.7463V82.549L90.229 82.8544H91.4523L91.7578 82.549ZM80.7461 68.7828C83.8048 68.7828 85.9471 71.2305 85.9471 75.207C85.9471 79.1835 83.8048 81.6312 80.7461 81.6312C77.6861 81.6312 75.5438 79.1835 75.5438 75.207C75.5438 71.2305 77.6861 68.7828 80.7461 68.7828ZM80.7461 83.1599C84.7226 83.1599 87.7826 80.4067 87.7826 75.207C87.7826 70.006 84.7226 67.2528 80.7461 67.2528C76.7696 67.2528 73.7096 70.0073 73.7096 75.207C73.7096 80.408 76.7696 83.1599 80.7461 83.1599ZM71.8741 82.549V73.3702C71.8741 69.3937 69.7331 67.2515 66.3676 67.2515C64.2254 67.2515 62.3899 68.1705 61.4734 69.7005H61.1666L60.8625 67.8624L60.5557 67.5569H59.6379L59.3324 67.8624V82.5477L59.6379 82.8531H60.8625L61.1666 82.5477V74.2879C61.1666 70.9224 62.6966 68.7815 66.0609 68.7815C68.5086 68.7815 70.0373 70.3102 70.0373 73.3689V82.5477L70.3441 82.8531H71.5673L71.8741 82.549ZM56.2724 82.549V73.3702C56.2724 69.3937 54.1301 67.2515 50.7659 67.2515C48.6237 67.2515 46.7895 68.1705 45.8717 69.7005H45.5662V61.7463L45.2608 61.4408H44.0375L43.7295 61.7463V82.549L44.0362 82.8544H45.2595L45.5649 82.549V74.2892C45.5649 70.9237 47.095 68.7828 50.4592 68.7828C52.9069 68.7828 54.4356 70.3115 54.4356 73.3702V82.549L54.7411 82.8544H55.9656L56.2724 82.549ZM29.9646 75.207C29.9646 70.9237 32.1055 68.7828 35.1656 68.7828C38.2243 68.7828 39.4475 70.6183 39.753 72.4525L40.0585 72.7592H41.283L41.5885 72.4525C41.283 69.3937 38.8339 67.2515 35.1643 67.2515C31.1878 67.2515 28.1291 69.7005 28.1291 75.2057C28.1291 80.7122 31.1878 83.1586 35.1643 83.1586C38.8339 83.1586 41.283 81.0163 41.5885 77.9589L41.283 77.6535H40.0585L39.753 77.9589C39.4475 79.7931 38.2243 81.6299 35.1656 81.6299C32.1055 81.6312 29.9646 79.4889 29.9646 75.207ZM26.599 75.8193L26.9058 75.5125V74.596C26.9058 70.3128 24.4568 67.2528 20.1735 67.2528C15.8929 67.2528 13.4438 70.3128 13.4438 74.596V75.207C13.4438 79.4889 15.5861 83.1599 20.4803 83.1599C24.7623 83.1599 26.2923 80.4067 26.599 78.5712L26.2923 78.2657H25.0703L24.7636 78.5712C24.1526 80.408 22.9281 81.6312 20.4816 81.6312C16.5051 81.6312 15.2806 77.9602 15.2806 76.1247L15.5861 75.8193H26.599ZM24.7636 74.2892H15.5861L15.2806 73.9838C15.2806 71.8415 16.5038 68.7841 20.1735 68.7841C23.8458 68.7841 25.069 71.8428 25.069 73.9838L24.7636 74.2892ZM16.5207 62.664V61.7463L16.2153 61.4408H0.306782L0 61.7463V62.664L0.306782 62.9695H7.03649L7.34197 63.275V82.549L7.64875 82.8544H8.87198L9.17747 82.549V63.2763L9.48295 62.9708H16.214L16.5207 62.664Z" fill="white"/>
</svg>
