<svg width="155" height="75" viewBox="0 0 155 75" fill="none" xmlns="http://www.w3.org/2000/svg">
<path fill-rule="evenodd" clip-rule="evenodd" d="M48.6796 50.2336H61.8111C64.8141 50.2336 67.1539 49.475 68.9207 48.1737C70.4222 47.0673 72.1943 44.802 72.1943 42.2995V41.2353C72.1943 40.0025 71.2181 38.9067 70.4541 38.343C69.4831 37.6265 67.5147 37.2577 67.1805 36.9679C68.8464 36.9311 70.921 35.4981 71.9343 34.6973C73.1281 33.749 74.1044 31.8577 74.1044 29.7398V29.6239C74.1044 26.1889 70.2312 24.7665 66.5862 24.7665H54.0914L48.6849 50.2389L48.6796 50.2336ZM58.8293 35.0713H62.1666C64.7664 35.0713 66.7029 34.1441 66.7029 31.6364V31.1622C66.7029 29.8293 65.3765 29.3868 63.9599 29.3868L60.0815 29.3973L58.8346 35.0713H58.8293ZM56.6805 45.1444V45.6185H59.9011C62.7025 45.6185 64.9149 44.8072 64.9149 42.0624V41.1141C64.9149 40.3344 63.2967 39.5758 62.4107 39.5758H57.8743C57.8637 40.0605 57.4764 41.8253 57.3225 42.3469C57.2376 42.6367 56.6805 45.1022 56.6805 45.1444Z" fill="white"/>
<path fill-rule="evenodd" clip-rule="evenodd" d="M74.5553 50.2336H81.7392L83.8827 40.287H86.7477C89.0239 40.287 90.0213 40.8086 89.7242 43.3584C89.5173 45.1128 89.2573 47.0621 89.2573 48.9376V50.2389H96.8922L96.8551 48.4582L97.1309 41.1141V40.4029C97.1309 38.9172 95.205 37.7951 93.5496 37.7951H92.5946V37.558C96.6853 37.2208 100.351 34.5498 100.351 30.2139V29.1497C100.351 26.2258 97.7199 24.7665 94.7434 24.7665H79.983L74.5553 50.2336ZM84.912 35.6561L88.5357 35.6667C90.0266 35.6667 90.7854 35.5508 91.6873 34.8869C92.2816 34.4497 93.0668 33.2959 93.0668 32.3476V31.2834C93.0668 29.5923 90.5837 29.3868 88.7692 29.3868H86.1535L84.9014 35.6561H84.912Z" fill="white"/>
<path fill-rule="evenodd" clip-rule="evenodd" d="M98.3195 50.2389L105.434 50.2126L108.225 45.1444H118.571L119.203 50.2389H127.315C126.853 48.2685 126.44 45.8978 126.111 43.8537C125.819 42.0098 125.06 39.207 124.927 37.4421C124.8 35.7615 124.089 32.7533 123.744 31.0358C123.537 30.0243 123.33 28.7441 123.166 27.8169C123.06 27.2005 122.837 24.7612 122.301 24.7612H114.067C113.663 24.7612 107.01 36.1092 106.145 37.3894C105.445 38.4273 104.898 39.502 104.235 40.5926C103.588 41.662 102.829 42.6736 102.214 43.7957C100.999 45.9979 99.4761 48.0578 98.3195 50.2336V50.2389ZM110.979 40.345L117.935 40.3976L116.81 29.6713L110.984 40.345H110.979Z" fill="white"/>
<path fill-rule="evenodd" clip-rule="evenodd" d="M107.27 0H59.3016L57.5135 8.29236H105.243C105.758 8.29236 106.23 4.91536 106.331 4.27789C106.485 3.29271 107.275 0.837665 107.275 0L107.27 0Z" fill="white"/>
<path fill-rule="evenodd" clip-rule="evenodd" d="M43.4323 75H91.4009L93.157 66.7234L45.2256 66.7076L43.4323 75Z" fill="white"/>
<path fill-rule="evenodd" clip-rule="evenodd" d="M54.9456 20.6045L102.973 20.615C102.988 19.8669 103.588 17.2117 103.779 16.4425C103.906 15.9209 104.983 12.4438 104.166 12.4438H56.6964L54.9456 20.6045Z" fill="white"/>
<path fill-rule="evenodd" clip-rule="evenodd" d="M46.0374 62.5559L93.9954 62.5507L95.6985 54.3848L47.7988 54.4006L46.0374 62.5559Z" fill="white"/>
<path fill-rule="evenodd" clip-rule="evenodd" d="M155 24.9983V24.7612H135.549L130.159 50.2284H149.747L150.851 45.2603H138.414V44.8968C138.414 43.5112 139.332 41.3986 139.369 39.8023H151.063V39.4493C151.063 38.5748 151.912 36.183 152.018 34.9449H140.563L141.624 29.7293H153.928L155 24.993V24.9983Z" fill="white"/>
<path fill-rule="evenodd" clip-rule="evenodd" d="M30.5448 25.3565L25.1754 50.2388L44.7958 50.223L45.8198 45.2602L33.3408 45.2444L34.3648 39.8075L45.9949 39.7917L47.0136 34.9501H35.5268L36.6304 29.7344V29.3815L38.6571 29.529L47.3691 29.5026L48.6796 29.3657C48.7963 28.8968 48.9448 27.5586 49.1199 27.2109C49.3746 26.6893 49.5179 25.8464 49.5179 25.1194H31.3831C31.1072 25.1194 30.7941 25.2248 30.5501 25.3565H30.5448Z" fill="white"/>
<path fill-rule="evenodd" clip-rule="evenodd" d="M30.5447 25.3564C30.7941 25.2247 31.1071 25.1194 31.3777 25.1194H49.5125C49.5125 25.8464 49.3693 26.6893 49.1146 27.2109C48.9448 27.5586 48.7909 28.8968 48.6742 29.3657L47.3637 29.5026L38.6518 29.529L36.625 29.3815V29.7344H48.913L49.868 24.7559H30.8949C30.497 24.7559 30.5447 24.9666 30.5394 25.3459L30.5447 25.3564Z" fill="white"/>
<path fill-rule="evenodd" clip-rule="evenodd" d="M2.62631 33.4118V34.2389C2.62631 37.2156 5.43832 38.2903 7.71976 39.1332C8.78089 39.5231 10.4999 39.8919 11.6513 40.208C13.8213 40.8033 13.625 40.6031 15.275 41.7042C15.275 43.1582 15.3652 44.1856 14.3253 45.0232C13.4711 45.7081 12.3994 46.0874 10.8607 46.0874C9.23187 46.0874 7.27939 45.4552 7.27939 43.9538V42.1783H0.217533L0 43.7167V45.255C0 48.9481 4.65308 50.8237 8.58989 50.8237H9.78367C13.3172 50.8237 16.5113 49.9702 18.6123 48.5741C20.3844 47.3992 22.9099 44.6176 22.9099 41.8201V40.0447C22.9099 37.4105 19.4824 35.8089 17.2753 35.3295C15.9117 35.0345 14.5482 34.613 13.2589 34.2231C11.9696 33.8333 10.2612 33.7068 10.2612 31.9894V31.8735C10.2612 29.7872 12.2879 28.6756 14.4367 28.6756H14.7922C15.7101 28.6756 16.941 29.508 16.941 30.451V31.6364C16.941 31.9578 16.8827 31.963 16.8243 32.2264H23.8649C24.4061 32.2264 24.3424 30.883 24.3424 30.3298V29.6186C24.3424 25.6252 20.3473 24.1659 16.2301 24.1659H14.32C8.54214 24.1659 2.62631 27.8643 2.62631 33.4066V33.4118Z" fill="white"/>
</svg>
