<svg width="183" height="58" viewBox="0 0 183 58" fill="none" xmlns="http://www.w3.org/2000/svg">
<path d="M65.7533 9.82871C58.1855 9.82871 52.4509 15.1081 52.4509 22.1802C52.4509 29.2524 58.2216 34.5317 65.6359 34.5317C70.079 34.5317 73.5739 32.6218 75.8136 29.9551V29.4416L71.4066 25.7028H70.8918C69.6817 27.0181 67.8033 28.0091 65.7081 28.0091C62.439 28.0091 59.8652 25.5586 59.8652 22.1802C59.8652 18.8018 62.439 16.3513 65.7081 16.3513C67.8033 16.3513 69.6726 17.3423 70.8918 18.6577H71.4066L75.8136 14.9189V14.4053C73.5017 11.6215 69.8623 9.8197 65.7533 9.8197" fill="white"/>
<path d="M79.5613 34.0724H97.8577V28.1084H86.8401V24.748H95.1394V19.1533H86.8401V15.7929H97.8577V9.82886H79.5613V34.0724Z" fill="white"/>
<path d="M166.031 8.36945L175.613 4.77481V4.26129L173.084 0.0810547H172.569L164.08 5.28833V5.80185L165.516 8.36945H166.031Z" fill="white"/>
<path d="M179.324 25.6849L176.426 19.2254L172.199 9.82886H165.516L155.339 34.0814H162.979L164.333 30.4237H173.409C174.141 31.73 174.917 32.7391 175.757 33.4057C176.751 34.1535 177.961 34.5229 179.505 34.5229C180.851 34.5229 182.043 34.2346 183 33.7301L179.722 26.4957C179.595 26.2615 179.469 25.9912 179.324 25.6759M166.176 25.5678L168.858 18.3695L171.395 25.5678H166.176Z" fill="white"/>
<path d="M124.553 25.6849L121.654 19.2254L117.427 9.82886H110.745L100.567 34.0814H108.207L109.571 30.4237H118.647C119.378 31.73 120.155 32.7391 120.995 33.4057C121.988 34.1535 123.198 34.5229 124.742 34.5229C126.088 34.5229 127.28 34.2346 128.237 33.7301L124.959 26.4957C124.833 26.2615 124.706 25.9912 124.562 25.6759M111.404 25.5678L114.086 18.3695L116.624 25.5678H111.404Z" fill="white"/>
<path d="M147.663 24.5586C150.309 23.3604 152.07 21.0901 152.07 17.9189C152.07 12.9549 148.692 9.8197 142.407 9.8197H131.091V34.0723H138.361V25.5677H138.948C140.564 25.5677 142.073 28.892 142.948 30.4596C144.601 33.3696 146.145 34.5227 149.451 34.5227C150.923 34.5227 152.431 34.0362 153.162 33.4416L153.18 33.3786L147.798 24.7298L147.645 24.5586H147.663ZM142.118 20.7207H138.37V15.7928H142.118C143.472 15.7928 144.655 16.6847 144.655 18.3333C144.655 19.982 143.481 20.7207 142.118 20.7207Z" fill="white"/>
<path d="M60.2805 42.6851C60.2805 43.7392 59.8651 44.6761 59.1697 45.3518C58.4834 46.0275 57.5081 46.4509 56.3792 46.4509C54.1396 46.4509 52.4598 44.8113 52.4598 42.595C52.4598 40.3788 54.1938 38.7391 56.3973 38.7391C57.6706 38.7391 58.8085 39.3157 59.5039 40.1716V40.3067L58.4021 41.2347H58.2666C57.8422 40.7121 57.201 40.3518 56.4424 40.3518C55.2594 40.3518 54.2841 41.2797 54.2841 42.6041C54.2841 43.9284 55.2142 44.8383 56.4785 44.8383C57.0294 44.8383 57.5351 44.6581 57.8964 44.3248C58.1854 44.0635 58.375 43.7302 58.4473 43.3428H56.4514V42.0275H60.118L60.2534 42.1446C60.2805 42.3158 60.2805 42.532 60.2805 42.6941" fill="white"/>
<path d="M61.4725 42.595C61.4725 40.3878 63.2426 38.7391 65.5635 38.7391C67.8844 38.7391 69.6454 40.3878 69.6454 42.595C69.6454 44.8023 67.8754 46.4509 65.5635 46.4509C63.2516 46.4509 61.4725 44.8023 61.4725 42.595ZM67.8302 42.595C67.8302 41.2797 66.8278 40.3518 65.5725 40.3518C64.3172 40.3518 63.3148 41.2797 63.3148 42.595C63.3148 43.9104 64.3082 44.8383 65.5725 44.8383C66.8368 44.8383 67.8302 43.9014 67.8302 42.595Z" fill="white"/>
<path d="M78.0441 39.0092L74.6846 46.3066H73.628L70.2686 39.0092L70.3498 38.874H72.1831L74.1608 43.6579L76.2018 38.874H77.9628L78.0441 39.0092Z" fill="white"/>
<path d="M81.1959 40.3335V41.8831H84.0135V43.2795H81.1959V44.8471H84.8624V46.3066H79.4078V38.874H84.8444V40.3335H81.1959Z" fill="white"/>
<path d="M92.8545 46.1716L92.7733 46.3068H90.9942L89.4951 43.5139H88.4475V46.3068H86.6594V38.8652H89.8654C91.7438 38.8652 92.7462 39.7661 92.7462 41.2346C92.7462 42.2437 92.1772 42.9374 91.2832 43.2797L92.8545 46.1626V46.1716ZM88.4475 42.2887H89.8834C90.4885 42.2887 90.931 41.9193 90.931 41.3247C90.931 40.7301 90.4975 40.3247 89.8834 40.3247H88.4475V42.2797V42.2887Z" fill="white"/>
<path d="M101.244 38.874V46.3426H100.133L96.3495 41.9191V46.3066H94.5704V38.874H95.6812L99.4561 43.2975V38.874H101.244Z" fill="white"/>
<path d="M102.96 42.595C102.96 40.3878 104.73 38.7391 107.06 38.7391C109.39 38.7391 111.142 40.3878 111.142 42.595C111.142 44.8023 109.372 46.4509 107.06 46.4509C104.748 46.4509 102.96 44.8023 102.96 42.595ZM109.318 42.595C109.318 41.2797 108.315 40.3518 107.06 40.3518C105.805 40.3518 104.802 41.2797 104.802 42.595C104.802 43.9104 105.805 44.8383 107.06 44.8383C108.315 44.8383 109.318 43.9014 109.318 42.595Z" fill="white"/>
<path d="M122.981 42.577C122.981 44.8203 121.464 46.3068 119.062 46.3068H115.802V38.8652H119.062C121.473 38.8652 122.981 40.3517 122.981 42.577ZM121.157 42.595C121.157 41.1896 120.281 40.3427 118.999 40.3427H117.59V44.8563H118.999C120.281 44.8563 121.157 44.0094 121.157 42.604" fill="white"/>
<path d="M124.264 42.595C124.264 40.3878 126.034 38.7391 128.364 38.7391C130.694 38.7391 132.446 40.3878 132.446 42.595C132.446 44.8023 130.676 46.4509 128.364 46.4509C126.052 46.4509 124.264 44.8023 124.264 42.595ZM130.612 42.595C130.612 41.2797 129.61 40.3518 128.355 40.3518C127.099 40.3518 126.097 41.2797 126.097 42.595C126.097 43.9104 127.09 44.8383 128.355 44.8383C129.619 44.8383 130.612 43.9014 130.612 42.595Z" fill="white"/>
<path d="M138.894 40.3335V41.8831H141.711V43.2795H138.894V44.8471H142.56V46.3066H137.096V38.874H142.533V40.3335H138.894Z" fill="white"/>
<path d="M143.797 45.1086V44.9734L144.682 43.9554H144.809C145.278 44.496 146.136 44.9374 146.877 44.9374C147.617 44.9374 148.069 44.6401 148.069 44.2077C148.069 43.577 147.346 43.496 146.425 43.2167C145.405 42.8923 144.159 42.3248 144.159 40.9374C144.159 39.64 145.306 38.7391 146.967 38.7391C148.186 38.7391 149.225 39.2166 149.767 39.8653V39.9914L148.882 41.0004H148.755C148.385 40.622 147.771 40.1896 146.985 40.1896C146.389 40.1896 145.974 40.4419 145.974 40.8563C145.974 41.3518 146.534 41.541 147.148 41.7482C148.421 42.1536 149.902 42.541 149.902 44.2077C149.902 45.6581 148.584 46.46 146.976 46.46C145.649 46.46 144.466 45.9374 143.797 45.1176" fill="white"/>
<path d="M154.95 46.3066H153.153V40.3335H150.814V38.874H157.289V40.3335H154.95V46.3066Z" fill="white"/>
<path d="M165.02 46.1714L164.938 46.3066H163.123L162.581 45.0002H159.43L158.879 46.3066H157.136L157.054 46.1714L160.495 38.874H161.588L165.02 46.1714ZM162.085 43.766L161.037 41.2344L159.962 43.766H162.085Z" fill="white"/>
<path d="M173.545 42.577C173.545 44.8203 172.028 46.3068 169.616 46.3068H166.356V38.8652H169.616C172.028 38.8652 173.545 40.3517 173.545 42.577ZM171.72 42.595C171.72 41.1896 170.854 40.3427 169.562 40.3427H168.153V44.8563H169.562C170.844 44.8563 171.72 44.0094 171.72 42.604" fill="white"/>
<path d="M174.827 42.595C174.827 40.3878 176.597 38.7391 178.918 38.7391C181.239 38.7391 183 40.3878 183 42.595C183 44.8023 181.23 46.4509 178.918 46.4509C176.606 46.4509 174.827 44.8023 174.827 42.595ZM181.176 42.595C181.176 41.2797 180.173 40.3518 178.918 40.3518C177.663 40.3518 176.66 41.2797 176.66 42.595C176.66 43.9104 177.663 44.8383 178.918 44.8383C180.173 44.8383 181.176 43.9014 181.176 42.595Z" fill="white"/>
<path fill-rule="evenodd" clip-rule="evenodd" d="M26.2615 35.1896L26.7673 35.568V35.9554L26.2525 35.559V35.1896H26.2615ZM17.7545 38.7573H17.0863V38.7212V38.3609C17.0863 38.2708 17.014 38.2077 16.9327 38.2077H16.5715C16.4902 38.2077 16.418 38.2798 16.418 38.3609V38.7663H14.9189C15.9303 38.1266 17.1585 37.7753 18.3144 37.541L18.9556 37.4059L18.4409 37.0005C17.5378 36.2797 15.9032 35.0185 15.7858 33.7752C15.7407 33.3698 15.8581 32.9824 16.0568 32.6311L16.5896 31.6851L15.6413 32.2166C12.9682 33.7212 12.9411 36.2077 14.1693 38.7573H13.781V38.523H13.2662V38.7573H12.6883C12.5347 38.8744 12.5347 39.0185 12.6883 39.1987C14.3228 39.469 16.0206 39.469 17.7726 39.1987C17.9261 39.0546 17.9261 38.9014 17.7726 38.7573M14.4583 38.6852C12.9953 35.7122 13.6365 33.6761 15.7768 32.4689C14.8015 34.2076 16.1922 35.6041 18.2422 37.2257C16.7973 37.523 15.4788 37.9554 14.4583 38.6852ZM26.2345 35.9284L26.7853 36.3428V36.7302L26.2254 36.2978V35.9284H26.2345ZM26.2164 36.6761L26.8124 37.1266V37.514L26.1983 37.0455V36.6761H26.2164ZM26.1893 37.4149L26.8395 37.9014V38.2888L26.1712 37.7753V37.4059L26.1893 37.4149ZM26.1622 38.1627L26.8666 38.6942V39.0816L26.1532 38.532V38.1627H26.1622ZM26.1351 38.9104L26.8847 39.478V39.8654L26.1171 39.2798V38.9104H26.1351ZM26.1171 39.6492L26.9208 40.2528V40.6402L26.108 40.0185V39.6492H26.1171ZM26.09 40.3969L26.9298 41.0366V41.424L26.0719 40.7753L26.09 40.4059V40.3969ZM26.0629 41.1357L26.5957 41.5411H26.09L26.0448 41.514V41.1447L26.0629 41.1357ZM26.2886 34.4779L26.3067 34.4599L26.7492 34.7932V35.1806L26.2796 34.8203V34.4779H26.2886ZM16.6347 26.8112H15.8219V27.613H16.6347V26.8112ZM17.8719 28.1986H14.5847V30.0544H15.7678V29.0454C15.7678 28.7661 15.9574 28.5139 16.2103 28.5139C16.4631 28.5139 16.6528 28.7661 16.6528 29.0454V30.0544H17.8719V28.1986ZM17.8719 26.4508H14.5847V27.8922H17.8719V26.4508ZM15.6775 24.8111H16.7702L16.7341 24.1895H15.7136L15.6775 24.8111ZM15.3704 23.8922H17.0682V23.3336H15.3704V23.8922ZM16.2103 21.685C15.7768 21.685 15.4156 21.9552 15.4156 22.2796V22.3606H16.996V22.2796C16.996 21.9552 16.6438 21.685 16.2012 21.685H16.2103ZM16.2103 21.1444C16.0748 21.1444 15.9755 21.2525 15.9755 21.3877V21.4147C16.0568 21.3967 16.1471 21.3877 16.2193 21.3877L16.4541 21.4057V21.3787C16.4541 21.2435 16.3457 21.1354 16.2193 21.1354M15.0543 25.5769V25.1084H14.5847V26.1265H17.8719V25.1084H17.4023V25.5769H16.9327V25.1084H16.4631V25.5769H15.9935V25.1084H15.5239V25.5769H15.0543ZM21.3307 57.0908C24.3199 51.316 42.228 47.9285 42.228 39.2708C42.228 30.613 33.1791 24.2526 42.1377 18.4867L36.2586 10.9281C26.8847 9.12624 16.9508 9.13525 6.40283 10.9281L0.523786 18.4867C9.48233 24.2616 0.433478 30.622 0.433478 39.2708C0.433478 47.9195 18.3415 51.316 21.3307 57.0908ZM31.7974 7.1082H31.8516L31.3639 5.99107L29.7474 5.77485L30.0274 6.88297L31.7974 7.1082ZM11.2614 5.99107H11.2433L10.7557 7.14424L12.616 6.91L12.905 5.77485L11.2614 5.98206V5.99107ZM16.8876 5.4325C17.4114 5.39647 17.9352 5.36944 18.4589 5.35142L18.3596 6.49558C17.8629 6.5136 17.3752 6.54062 16.8786 6.56765C16.9056 6.34242 16.9327 6.10819 16.9598 5.88296L16.9869 5.67575L16.9056 5.48656L16.8786 5.4325H16.8876ZM16.1471 4.76583L16.2464 4.1442C17.89 4.00906 19.5426 3.93699 21.2043 3.93699V4.99106C19.7052 5.00006 18.197 5.04511 16.6979 5.14421C16.5534 4.97304 16.3638 4.8379 16.1471 4.77484M14.6028 5.3334L11.3788 5.67575L11.8123 4.64871C13.185 4.45051 14.5576 4.28834 15.9394 4.17122L15.849 4.71177C15.3614 4.68474 14.9098 4.94601 14.6118 5.3334M14.2867 6.75684C13.8352 6.79288 13.3927 6.83793 12.9411 6.88297L13.2301 5.74782C13.6184 5.70278 14.0158 5.66674 14.4131 5.6307L14.3951 5.81089C14.368 6.1262 14.3319 6.45053 14.2867 6.76585M14.1332 8.13524C12.8057 8.24335 11.4872 8.37849 10.1687 8.55867L10.6202 7.47757H10.6383C11.8394 7.3064 13.0405 7.17126 14.2506 7.06315C14.2145 7.36046 14.1783 7.65776 14.1513 7.96407L14.1332 8.13524ZM25.6023 5.41448C25.1327 5.38746 24.6631 5.36944 24.1935 5.35142L24.2928 6.48657C24.7263 6.50459 25.1598 6.52261 25.5933 6.54062C25.5662 6.32441 25.5391 6.10819 25.512 5.89197L25.4849 5.68476L25.5662 5.49557L25.6023 5.42349V5.41448ZM26.5054 4.72078L26.406 4.1442C24.7805 4.00906 23.1369 3.93699 21.5023 3.93699V4.99106C22.9292 4.99106 24.356 5.0361 25.7829 5.11718C25.9364 4.937 26.1441 4.81087 26.3789 4.74781L26.4963 4.72078H26.5054ZM27.8419 5.29737L31.1653 5.65773H31.2195L30.7769 4.64871C29.4314 4.45051 28.0767 4.29735 26.7221 4.18023L26.8124 4.72078C27.2098 4.75682 27.58 4.99106 27.8419 5.30637M28.1761 6.7118C28.6818 6.75684 29.1875 6.80189 29.7023 6.85594L29.4223 5.73881C28.9618 5.68476 28.5102 5.63971 28.0496 5.59467V5.61268L28.0767 5.80188C28.1038 6.10819 28.14 6.40549 28.1761 6.7118ZM28.3386 8.0992C29.7023 8.20731 31.0569 8.34245 32.4115 8.52263H32.4657L31.9961 7.45055C30.7408 7.27036 29.4855 7.12622 28.2212 7.01811C28.2574 7.33343 28.3025 7.64875 28.3296 7.96407V8.0992H28.3386ZM26.5415 7.96407C26.8576 7.99109 27.1466 8.0001 27.5529 8.02713C27.4807 7.22532 27.3723 6.67576 27.3001 5.86494C26.984 5.38746 26.4602 5.32439 26.2615 5.78386C26.3609 6.57666 26.4422 7.16225 26.5415 7.95506M26.5054 8.35146L26.1983 8.32443L26.1622 8.01812C26.0719 7.28838 25.9726 6.56765 25.8823 5.84692V5.73881L25.9093 5.63971C26.0177 5.38746 26.2164 5.18926 26.4783 5.11718C26.9389 4.99106 27.3814 5.28836 27.6252 5.65773L27.6794 5.73881V5.83791C27.7516 6.55864 27.869 7.27036 27.9413 8.0001L27.9774 8.45957L27.5168 8.42353C27.1737 8.3965 26.8395 8.3875 26.4963 8.36047M28.0587 3.92798C22.3422 3.32437 16.8876 3.47752 10.8731 4.41447C10.5389 4.16222 10.3312 4.01807 9.99709 3.76581C17.881 2.50454 24.6902 2.53156 32.6463 3.79284L31.9058 4.4415L28.0587 3.92798ZM12.1284 2.13516V1.02704C11.2524 1.17119 10.3764 1.32434 9.50039 1.49551C9.50039 2.74778 9.38299 2.3694 9.93387 3.42347C13.5913 2.82887 17.2669 2.48652 20.9785 2.47751C24.925 2.4685 28.8173 2.81986 32.7095 3.44149C33.2785 2.34237 33.1611 2.78382 33.1611 1.49551C32.2851 1.32434 31.4091 1.16218 30.5331 1.01803V2.12615C29.6571 2.00003 28.7811 1.89192 27.9052 1.79282V0.666675C27.0292 0.576584 26.1532 0.504511 25.2772 0.450456V1.58561C24.4012 1.54957 23.5252 1.52254 22.6492 1.50452V0.360365C21.7732 0.360365 20.8973 0.360365 20.0213 0.360365V1.50452C19.1453 1.52254 18.2693 1.54957 17.3933 1.59462V0.459465C16.5173 0.51352 15.6413 0.585593 14.7653 0.675684V1.80182C13.8894 1.89192 13.0134 2.00003 12.1374 2.12615M12.4986 1.00902L13.7449 1.55858C13.3295 1.61263 12.914 1.65768 12.4986 1.72074V1.00902ZM18.4499 1.1892C18.2151 1.1892 17.9893 1.20722 17.7545 1.21623V0.522529L18.4499 1.1892ZM24.2296 1.1802C24.4554 1.1802 24.6812 1.19821 24.916 1.20722V0.522529L24.2296 1.1802ZM28.9618 1.54056C29.3681 1.58561 29.7655 1.63966 30.1719 1.70272V1.00902L28.9618 1.54056ZM15.9303 7.96407C15.6142 7.99109 15.3253 8.0001 14.9189 8.02713C14.9911 7.22532 15.0905 6.67576 15.1717 5.86494C15.4878 5.38746 16.0116 5.32439 16.2103 5.78386C16.1109 6.57666 16.0297 7.16225 15.9303 7.95506M15.9664 8.35146L16.2735 8.32443L16.3096 8.01812C16.3999 7.28838 16.4993 6.56765 16.5896 5.84692V5.73881L16.5625 5.63971C16.4541 5.38746 16.2554 5.18926 15.9935 5.11718C15.533 4.99106 15.0905 5.28836 14.8466 5.65773L14.7924 5.73881V5.83791C14.7202 6.55864 14.6028 7.27036 14.5305 8.0001L14.4854 8.45957L14.946 8.42353C15.2891 8.3965 15.6233 8.3875 15.9664 8.36047M19.8587 6.45954L18.6757 6.49558L18.775 5.35142C20.4818 5.29737 22.1887 5.28836 23.8955 5.35142L23.9858 6.48657L22.8298 6.45954C22.8931 6.55864 22.9472 6.65774 23.0014 6.76585L25.6294 6.87396C25.6745 7.23433 25.7197 7.6037 25.7649 7.96407L23.3085 7.87397L23.3265 8.0001C23.1369 6.8109 22.7034 5.67575 21.3217 5.67575C20.6083 5.67575 20.1477 6.00008 19.8407 6.46855M31.075 9.75688C30.9666 9.74787 30.8492 9.72985 30.7408 9.72085L30.4518 8.5857L32.6012 8.84696L33.1159 10.0272H33.0888L32.9895 10.0091H32.9353L32.8992 10.0001H32.8631L32.7547 9.98211H32.7186L32.6824 9.9731L32.5379 9.95508H32.5018H32.4657L32.4115 9.94607H32.3935H32.3573H32.3212L32.258 9.92806H32.2399L32.1045 9.91004H32.0683L32.0322 9.90103L31.8516 9.874H31.7974L31.671 9.85598H31.6349H31.5987L31.3369 9.81995H31.3007H31.2646H31.2285H31.1924H31.1562H31.1201L31.075 9.75688ZM24.5457 9.27039L24.4464 8.1983C24.9069 8.21632 25.3585 8.23434 25.819 8.25236L25.8732 8.67579L26.4873 8.73885C26.8305 8.77489 27.1737 8.77489 27.5168 8.80192L28.4289 8.87399L28.3838 8.3965C28.9708 8.44155 29.5578 8.4956 30.1538 8.54966L30.4428 9.6758H30.3886L30.1177 9.63976H30.0274C29.2598 9.54967 28.4831 9.48661 27.7065 9.42354H27.6704L27.3272 9.39652H27.2369L27.1466 9.38751C26.2886 9.33345 25.4307 9.28841 24.5728 9.26138M23.471 9.24336C23.4439 8.91002 23.4078 8.54065 23.3627 8.17128L24.1303 8.18929L24.2296 9.26138C23.9768 9.26138 23.7239 9.25237 23.4801 9.24336M22.7757 9.22534C22.6763 8.22533 22.6763 6.36945 21.3217 6.36945C19.9671 6.36945 20.0032 8.25236 19.9129 9.23435C19.7774 9.23435 19.6329 9.23435 19.4975 9.23435C19.6239 8.0001 19.7052 5.95503 21.3307 5.95503C22.9563 5.95503 23.0285 7.96407 23.164 9.21633C23.0376 9.21633 22.9021 9.21633 22.7757 9.21633M18.4228 9.28841L18.5222 8.1983L19.3078 8.18029L19.353 7.87397L16.6979 7.99109C16.7431 7.63073 16.7882 7.26135 16.8334 6.90099L19.6781 6.77486C19.3349 7.51361 19.2627 8.4956 19.1904 9.22534V9.27039C18.9285 9.27039 18.6757 9.28841 18.4138 9.29742M12.2999 9.74787H12.2187L12.5076 8.5947C13.0405 8.54065 13.5643 8.4956 14.0971 8.45056L14.0609 8.883L14.9731 8.81092C15.3162 8.7839 15.6594 8.77489 16.0026 8.74786L16.6167 8.6848L16.6708 8.28839C17.1856 8.26137 17.7094 8.24335 18.2241 8.22533L18.1158 9.31544H18.0796H18.0255H17.9352H17.8448H17.7094L17.4565 9.33345H17.294L17.2037 9.34246H17.0501L16.9327 9.36048H16.8424L16.7521 9.36949H16.6618L16.5715 9.3785H16.5444L16.2645 9.39652H16.12V9.40553H16.0297L15.8761 9.42354L15.5691 9.44156H15.5601C15.4427 9.45057 15.3253 9.45958 15.2079 9.46859H15.1175H15.0272C14.2325 9.54066 13.4378 9.61274 12.6431 9.69382H12.625L12.3451 9.72985L12.2999 9.74787ZM9.53652 10.0812H9.51846L10.0242 8.87399H10.0422L12.1825 8.61272L11.8936 9.7749H11.8574L11.8213 9.78391H11.7671L11.7129 9.79292H11.6768H11.6407H11.6317H11.5865L11.3878 9.81995H11.3517L11.2885 9.82895H11.2795H11.2433L10.8821 9.874H10.846H10.8099H10.7737H10.7557H10.7196L10.4396 9.91004C10.268 9.93706 10.0964 9.95508 9.92484 9.9731H9.88872L9.8526 9.98211L9.58167 10.0181L9.53652 10.0812ZM8.43476 40.9555L8.07353 42.1267H6.89953L7.85679 42.8474L7.48653 44.0186L8.44379 43.2888L9.39202 44.0186L9.03079 42.8474L9.98806 42.1177H8.81405L8.45282 40.9465L8.43476 40.9555ZM14.079 44.7753L13.7178 45.9555H12.5438L13.501 46.6763L13.1398 47.8475L14.088 47.1177L15.0363 47.8475L14.666 46.6763L15.6233 45.9555H14.4493L14.088 44.7844L14.079 44.7753ZM28.3567 44.7753L28.7179 45.9555H29.8919L28.9347 46.6763L29.2959 47.8475L28.3477 47.1177L27.3994 47.8475L27.7607 46.6763L26.8034 45.9555H27.9774L28.3386 44.7844L28.3567 44.7753ZM21.2495 47.6763L21.6107 48.8565H22.7847L21.8274 49.5772L22.1887 50.7484L21.2404 50.0187L20.2922 50.7484L20.6534 49.5772L19.6962 48.8565H20.8702L21.2314 47.6853L21.2495 47.6763ZM5.91517 35.2167L6.2764 36.3969H7.45944L6.50217 37.1176L6.8634 38.2888L5.91517 37.559L4.96694 38.2888L5.3372 37.1176L4.37993 36.3969H5.55394L5.91517 35.2257V35.2167ZM7.19754 28.0544L7.55877 29.2346H8.73278L7.77551 29.9553L8.13675 31.1265L7.18851 30.3968L6.24028 31.1265L6.60151 29.9553L5.64425 29.2346H6.82728L7.18851 28.0634L7.19754 28.0544ZM8.19093 20.0633L8.55216 21.2345H9.72616L8.7689 21.9552L9.13013 23.1264L8.1819 22.3967L7.23367 23.1264L7.5949 21.9552L6.63763 21.2345H7.81164L8.17287 20.0633H8.19093ZM30.7318 40.1447L35.9516 45.3519C34.317 46.4871 32.565 47.406 31.3188 48.0727C29.0792 49.2799 26.7582 50.4151 24.5999 51.7484C23.5072 52.4241 22.3151 53.2259 21.3307 54.1899C20.3464 53.2259 19.1543 52.4241 18.0616 51.7484C15.8942 50.4151 13.5823 49.2709 11.3427 48.0727C8.50701 46.5501 3.4317 43.8294 2.42928 40.5501C2.30285 40.1266 2.23964 39.7032 2.23964 39.2618C2.23964 36.568 3.25109 34.0365 4.26253 31.577C5.28301 29.0995 6.47508 26.3427 6.16803 23.6129C5.91517 21.3066 4.66892 19.5408 2.99822 18.1354L5.50878 14.9551L11.6678 21.0994C7.75745 27.7571 8.69665 38.4329 14.5757 43.0906C16.5354 44.6402 18.8473 45.379 21.3398 45.379C25.6113 45.379 28.745 43.2528 30.7408 40.1357M21.3307 15.3876C17.0592 15.3876 13.9165 17.5408 11.9116 20.6849L5.79777 14.5768L7.38719 12.5677C16.6438 11.0632 26.0267 10.865 35.2652 12.5497L39.6813 18.1354C38.0016 19.5408 36.7644 21.3156 36.5115 23.6129C36.2045 26.3517 37.4055 29.0995 38.417 31.577C39.4284 34.0365 40.4399 36.568 40.4399 39.2618C40.4399 41.505 38.5525 43.478 36.358 45.0636L30.9937 39.7122C34.9582 33.0184 33.9558 22.2165 27.9684 17.5858C26.0358 16.0903 23.769 15.3786 21.3307 15.3786M21.0779 54.4511L21.3307 54.6944L21.5836 54.4511C22.5409 53.5232 23.6697 52.7574 24.7986 52.0547C26.9659 50.7214 29.2598 49.5952 31.4994 48.388C34.7324 46.6583 40.8011 43.478 40.8011 39.2618C40.8011 36.514 39.7806 33.9464 38.7511 31.4418C37.7577 29.0274 36.5657 26.3066 36.8637 23.649C37.1075 21.4778 38.2725 19.784 39.9161 18.4056L40.178 18.1804L35.4639 12.2164L35.3285 12.1893C26.0538 10.4956 16.6076 10.6938 7.32397 12.2074L7.18851 12.2344L2.48347 18.1894L2.74536 18.4147C4.38897 19.793 5.55394 21.4868 5.79777 23.658C6.09579 26.3247 4.90372 29.0364 3.91033 31.4509C2.88082 33.9554 1.86034 36.523 1.86034 39.2708C1.86034 39.7483 1.93259 40.2077 2.06805 40.6582C3.10659 44.0636 8.1819 46.7934 11.1621 48.397C13.4017 49.6042 15.6955 50.7214 17.8629 52.0637C18.9918 52.7574 20.1206 53.5322 21.0779 54.4602M10.6563 24.5409C10.8189 24.0273 10.9995 23.5318 11.2072 23.0453L13.7991 26.9012C13.6546 27.0094 13.5101 27.1265 13.3746 27.2436L10.6563 24.5409ZM10.2319 26.1355C10.3312 25.694 10.4396 25.2616 10.566 24.8382L13.185 27.4418C13.0585 27.5769 12.9411 27.7121 12.8328 27.8652L10.2319 26.1445V26.1355ZM10.1687 26.4328C10.1988 26.2706 10.1988 26.2706 10.1687 26.4328V26.4328ZM9.77132 30.4058V30.3878H9.78035H9.86163H10.0784H10.0693H10.0513C13.2662 30.3878 17.4656 30.3878 20.816 30.3878C20.4367 30.5049 20.1025 30.631 19.8136 30.7752L19.7233 30.8202C19.6329 30.8653 19.5426 30.9103 19.4614 30.9554C19.362 31.0094 19.2717 31.0635 19.1814 31.1265C18.3144 31.7031 17.9713 32.3968 17.9622 33.1896C17.9622 33.541 18.0255 33.9194 18.1338 34.3067L18.17 34.4329V34.4509C18.2151 34.586 18.2693 34.7302 18.3235 34.8743C18.5041 35.3428 18.7118 35.7933 18.9376 36.2437C19.1001 36.568 19.2717 36.8834 19.4433 37.2077C20.1838 38.6041 20.9966 40.0636 21.3307 41.6312C21.5294 42.5591 21.5384 43.5051 21.2133 44.415V44.433C21.1772 44.5321 21.1411 44.6312 21.0959 44.7303L20.9876 44.9555H20.9785C20.6895 44.9555 20.4096 44.9285 20.1206 44.9015C18.5854 44.7393 17.0953 44.2528 15.7768 43.415C11.5233 40.7303 9.63586 35.2347 9.78035 30.4238M21.4843 29.1355L20.4186 29.3517C20.3735 29.1715 20.3193 28.9914 20.247 28.8202L22.3693 27.9283L22.1796 28.1625C21.9539 28.4418 21.71 28.7842 21.4843 29.1265M20.9876 30.0815H20.527C20.518 29.9283 20.4999 29.7752 20.4728 29.631L21.2856 29.4598C21.1682 29.667 21.0688 29.8743 20.9785 30.0815M32.8721 30.1355H26.7221C28.7902 28.8382 29.4043 27.0634 30.5331 27.1985C31.1743 27.2706 32.0774 27.4958 32.6734 27.5769C32.7908 28.4148 32.854 29.2616 32.8721 30.1175V30.1355ZM9.97903 27.5679V27.5319C10.0332 27.1625 10.0964 26.7931 10.1687 26.4238L12.6702 28.0814C12.5709 28.2346 12.4806 28.3968 12.4083 28.5589L9.97903 27.5589V27.5679ZM9.81647 29.1715L12.0742 29.622C12.0471 29.7752 12.029 29.9283 12.02 30.0815H9.78035C9.78035 29.7752 9.79841 29.4688 9.81647 29.1715ZM9.87969 28.9013L12.1284 29.3517C12.1735 29.1715 12.2277 29.0004 12.2909 28.8292L9.93387 27.8562C9.88872 28.1986 9.8526 28.5499 9.8255 28.8923H9.87066L9.87969 28.9013ZM16.0568 23.0273H15.6594V22.6579H16.0568V23.0273ZM16.7702 23.0273H16.3819V22.6579H16.7702V23.0273ZM15.0634 23.676L14.0609 18.739C14.666 18.1444 15.3433 17.6218 16.0838 17.1894L16.1019 20.8471C15.8581 20.9012 15.6684 21.1174 15.6684 21.3696L15.6865 21.4868C15.3704 21.6309 15.1266 21.9012 15.1266 22.2615V22.6399H15.3523V23.0093H15.0724V23.658L15.0634 23.676ZM15.2982 24.8111L15.1717 24.1895H15.4156L15.3794 24.8111H15.2982ZM14.2777 25.2075L12.4173 20.757C12.8418 20.1174 13.3114 19.5228 13.8261 18.9822L15.0092 24.8201H14.2777V25.2165V25.2075ZM14.2777 26.613C14.1964 26.658 14.1151 26.703 14.0339 26.7481L11.3336 22.739C11.5955 22.1444 11.9026 21.5769 12.2277 21.0363L14.2687 25.9193V26.5949L14.2777 26.613ZM14.2777 30.0815H12.2999C12.3722 28.7481 13.1488 27.5949 14.2777 26.9643V30.0815ZM18.17 26.9193C19.344 27.5409 20.1658 28.7121 20.238 30.0815H19.66H19.3711H18.17V26.9193ZM17.4926 24.8111L19.2085 16.0272C19.8768 15.9011 20.5902 15.829 21.3307 15.829C21.4752 15.829 22.1074 15.8561 22.0622 15.8561L18.179 25.3337V24.8201H17.4926V24.8111ZM17.3301 24.1895L17.2127 24.8111H17.0863L17.0501 24.1895H17.3391H17.3301ZM16.3728 20.8651L16.3548 17.0363C17.1314 16.6128 17.9803 16.2885 18.9015 16.0903L17.3662 23.9823V23.0273H17.0772V22.6579H17.303V22.2796C17.303 21.9102 17.0501 21.6399 16.7341 21.4958V21.3877C16.7431 21.1444 16.5896 20.9462 16.3728 20.8741M29.2959 35.8293L29.043 35.3788L29.5217 35.8833L29.2959 35.8383V35.8293ZM24.645 32.1896L24.6179 32.0815L24.916 32.3067L24.645 32.1986V32.1896ZM24.4373 32.3698L24.5547 32.8112L24.2296 32.2797L24.4464 32.3698H24.4373ZM23.9948 35.3698L23.742 35.8203L23.5162 35.8653L23.9948 35.3608V35.3698ZM25.4939 34.7842C25.1688 35.0005 24.8798 35.2707 24.627 35.5951L24.5999 35.6221L24.5818 35.6491L24.058 35.7572L24.636 34.7302L24.6721 34.6851L24.7173 34.6581C24.9792 34.577 25.2591 34.532 25.5301 34.514L24.916 34.7212L24.9972 34.9554L25.4939 34.7842ZM24.916 33.7031L25.6023 34.0365L24.916 33.9194L24.8798 34.1626L25.5391 34.2797C25.232 34.2887 24.916 34.3428 24.627 34.4419H24.5908H24.5547L23.7149 33.8743L24.7805 33.7031H24.8437H24.9069H24.916ZM25.7197 32.9193C25.8913 33.1806 26.0267 33.4599 26.1261 33.7392L25.4578 33.0545L25.2862 33.2257L26.1622 34.1266C25.8281 33.8383 25.3765 33.613 25.0153 33.4779L24.9792 33.4239L24.7263 32.4869L25.6294 32.8563L25.6836 32.8833L25.7197 32.9283V32.9193ZM28.5192 32.3968L28.7179 32.3157L28.4109 32.8112L28.5192 32.3968ZM28.3115 32.2166L28.0226 32.3337L28.3386 32.0995L28.3115 32.2166ZM28.3206 34.6581L28.3748 34.6851L28.4018 34.7392L28.9798 35.7662L28.456 35.6581V35.6401C28.2032 35.2887 27.9052 35.0005 27.5529 34.7842L28.0406 34.9464L28.1129 34.7122L27.5259 34.523C27.7968 34.532 28.0677 34.577 28.3206 34.6581ZM26.6318 33.568V32.6851H26.388V33.7572C26.2796 33.4239 26.1261 33.1085 25.9274 32.8022V32.7392L26.4512 31.7031L27.0111 32.7752V32.8112L27.0021 32.8383C26.8485 33.0725 26.7311 33.3157 26.6318 33.568ZM28.1851 35.6851L28.2032 35.7572V35.8383L28.0858 36.9104L27.562 36.3518L27.4988 36.3068L27.4717 36.2167C27.3633 35.8023 27.273 35.4419 27.1014 35.0905L27.562 35.559L27.7336 35.3878L27.2188 34.8563C27.5891 35.0545 27.9052 35.3158 28.1761 35.6671M26.9118 34.0455L27.6794 33.1716L27.4897 33.0094L26.8215 33.7842C26.9208 33.5049 27.0472 33.2257 27.2188 32.9644L27.2549 32.9103L27.3091 32.8923L28.2303 32.5139L27.9864 33.4239V33.4599L27.9413 33.4779C27.6162 33.604 27.2188 33.7932 26.9027 34.0455M28.0135 33.7121L28.0767 33.6851H28.167L29.2959 33.8743L28.4741 34.4329H28.438H28.4018C28.1038 34.3338 27.7968 34.2797 27.4807 34.2707L28.14 34.1536L28.0948 33.9103L27.3181 34.0455C27.5529 33.9013 27.7968 33.7932 28.0045 33.7031M25.9635 36.8653L25.7649 36.4059V36.3518L25.7829 36.2707C25.8461 36.0095 25.9184 35.7752 26.0087 35.55L25.9635 36.8563V36.8653ZM27.1375 39.7122C28.0496 40.0095 28.9527 40.3158 29.7474 40.7303C27.8239 43.2708 25.0153 44.9465 21.3217 44.9465H21.2675H21.2765H21.3127C22.3151 42.8114 21.5475 40.6672 20.527 38.6221C19.94 37.4509 19.2717 36.3158 18.8021 35.2347C18.4951 34.532 18.17 33.6311 18.2964 32.8383C18.3867 32.2707 18.7028 31.7842 19.1814 31.4779C19.5968 31.2166 20.0122 30.9824 20.4638 30.8112L20.5089 30.7932L20.6895 30.7301C19.4975 32.9824 19.949 35.1356 21.7823 37.0816C22.8298 38.1897 24.3199 38.7753 25.8732 39.2978L25.7919 41.7753H27.1917V41.5321C27.1737 40.9285 27.1556 40.3158 27.1375 39.7122ZM27.0653 37.487L27.282 36.9825V37.6852H27.5168V37.0185L27.7607 37.6491L27.9864 37.5681L27.7336 36.9014L28.2032 37.3969L28.3838 37.2257L28.3025 37.1446L28.3748 36.4239L28.5644 37.1176L28.7992 37.0545L28.6186 36.3788L29.0159 36.9554L29.2146 36.8113L28.7721 36.1716L29.3862 36.568L29.5217 36.3608L28.9437 35.9915L29.1333 36.0365L29.2056 36.1626L29.3501 36.0815L29.612 36.1356L29.6662 35.9014L29.5939 35.8833L29.7384 35.7392L29.1514 35.1266L29.8739 35.55L30.0003 35.3428L29.2056 34.8833L30.0906 35.0815L30.1448 34.8473L29.4133 34.6851L30.1629 34.6581V34.4149L29.323 34.4419L30.1267 34.1806L30.0545 33.9464L29.2598 34.2076L29.6662 33.9374L29.9642 33.7302L29.8287 33.532L29.612 33.6851L29.0159 33.595L29.7926 33.5049L29.7655 33.2617L28.8895 33.3608L29.6842 33.0184L29.5849 32.7932L28.7902 33.1446L29.4494 32.577L29.2869 32.3968L28.6366 32.9644L29.1062 32.2166L28.8985 32.0905V32.1085L28.8534 32.0274L28.6186 32.1265L28.6547 32.0004L28.5644 31.9734L28.727 31.8563L28.5825 31.6581L27.8239 32.2166L28.3838 31.4869L28.1941 31.3427L27.58 32.1446L27.9142 31.2076L27.6794 31.1265L27.3994 31.9193L27.4717 31.0905L27.2278 31.0725L27.1466 31.9914L26.966 31.0815L26.7311 31.1265L26.9118 32.0364L26.6228 31.4779L26.7311 31.2707L26.5144 31.1626L26.4873 31.2166V31.1986L26.2615 31.3067L26.3519 31.4779L26.0809 32.0004L26.2615 31.0995L26.0267 31.0545L25.8461 31.9644L25.7649 31.0454L25.521 31.0725L25.5933 31.9103L25.3043 31.1175L25.0785 31.1986L25.4127 32.1355L24.7986 31.3337L24.6089 31.4779L25.1688 32.2166L24.4102 31.6581L24.2657 31.8563L24.4644 32.0004L24.3651 32.0274L24.3922 32.1265L24.1393 32.0274L24.0942 32.1446L23.9135 32.2527L24.3831 33.0004L23.7329 32.4328L23.5704 32.613L24.2296 33.1806L23.4349 32.8293L23.3356 33.0545L24.1303 33.3968L23.2543 33.2977L23.2272 33.541L24.0038 33.6311L23.471 33.7121L23.2633 33.577L23.1279 33.7752L23.3446 33.9194V33.9824L23.4168 33.9734L23.8323 34.2617L23.0376 34.0004L22.9653 34.2347L23.769 34.4959L22.9292 34.4689V34.7122L23.6697 34.7392L22.9382 34.9014L22.9924 35.1356L23.8774 34.9374L23.0827 35.3969L23.2091 35.6041L23.9316 35.1806L23.3446 35.7933L23.4891 35.9374L23.4168 35.9554L23.471 36.1897L23.7329 36.1356L23.8774 36.2167L23.9497 36.0906L24.1393 36.0455L23.5613 36.4149L23.6968 36.6221L24.3109 36.2257L23.8684 36.8653L24.0671 37.0095L24.4644 36.4329L24.2838 37.1086L24.5186 37.1716L24.6992 36.4779L24.7715 37.1987L24.6902 37.2798L24.8708 37.4509L25.3404 36.9554L25.0875 37.6221L25.3133 37.7032L25.5481 37.0725V37.7392H25.801V37.0365L25.9816 37.478L25.9274 39.0365C24.4464 38.541 23.0376 37.9735 22.0532 36.9284C19.8045 34.55 20.1838 32.3608 21.114 30.7211V30.7121V30.7031V30.6941V30.6851V30.6761L21.1501 30.604L21.1862 30.5319L21.2224 30.4779V30.4689H21.7732L32.845 30.604C32.8269 34.2347 31.8516 37.8563 29.91 40.5681C29.043 40.1176 28.0767 39.7843 27.1014 39.478C27.0833 38.8473 27.0563 38.2077 27.0382 37.5771M27.0111 35.496C27.1104 35.7662 27.1827 36.0455 27.264 36.3608V36.3788L27.273 36.4059L27.0563 36.9194C27.0382 36.4419 27.0292 35.9734 27.0111 35.496ZM25.5391 36.2527L25.521 36.3068L25.4849 36.3518L24.9521 36.9104L24.8437 35.8383V35.7572L24.8527 35.6941C25.1056 35.3788 25.3856 35.1266 25.7197 34.9284L25.2682 35.3788L25.4397 35.55L25.9997 34.9824C25.7739 35.3788 25.6475 35.7752 25.5301 36.2437M23.0014 20.4327L25.503 16.6489C26.4422 17.0543 27.3001 17.5948 28.0587 18.2525L25.3404 20.9913C25.214 20.9372 25.0785 20.8832 24.9521 20.8291C24.3199 20.5949 23.6697 20.4777 23.0105 20.4237M22.1164 21.2525L18.486 26.7391C18.3867 26.676 18.2783 26.622 18.17 26.5679V26.0634L22.3422 15.8741C23.3807 15.9642 24.347 16.1984 25.232 16.5498L22.6673 20.4147C22.4144 20.4057 22.1525 20.4057 21.8997 20.4147C21.6649 20.4147 21.2133 20.3606 21.1682 20.703C21.123 21.0453 21.5655 21.1084 21.7913 21.1714C21.8997 21.2075 22.008 21.2345 22.1164 21.2615M23.4891 22.8561L19.1453 27.2346C19.0098 27.1085 18.8653 27.0003 18.7118 26.8922L22.3964 21.3336C23.0737 21.5138 23.7149 21.694 24.3019 22.0183C23.9587 22.0724 23.7149 22.3246 23.5704 22.6579L23.4891 22.8561ZM25.5662 23.8922L19.7052 27.8562C19.5968 27.7031 19.4704 27.5679 19.344 27.4328L23.3446 23.3967L23.2814 23.7751L23.742 23.649C23.9316 23.5949 24.1664 23.5679 24.3651 23.5228C24.5638 23.5408 24.8166 23.5769 24.9882 23.649C25.1779 23.712 25.3675 23.7931 25.5481 23.8922M26.3157 25.9643L25.2501 26.4148C25.1146 26.3877 24.9792 26.3517 24.8437 26.3337C24.3651 26.2616 23.8503 26.5679 23.4891 26.8472C23.2633 27.0184 23.0376 27.2256 22.8298 27.4328L20.1477 28.5589C20.0664 28.3878 19.9761 28.2256 19.8768 28.0724L25.8281 24.0544C26.09 24.5048 26.2345 25.3066 26.3157 25.9643ZM26.397 26.7211C26.1622 26.658 25.9455 26.5949 25.819 26.5589L25.6926 26.5229L26.3519 26.2436C26.3609 26.3607 26.3789 26.4688 26.388 26.5589L26.406 26.7121L26.397 26.7211ZM27.8781 26.9012C29.0521 26.0904 29.1333 23.667 31.4813 23.6399L31.6981 23.658C32.1316 24.8021 32.4476 26.0184 32.6373 27.2706L32.4928 27.2436C32.1948 27.1985 31.9058 27.1355 31.6078 27.0814C31.2646 27.0094 30.9214 26.9463 30.5783 26.9012C30.4428 26.8832 30.3164 26.8922 30.1809 26.9193C29.5578 27.0364 29.025 27.658 28.6096 28.0995C27.9684 28.7842 27.3723 29.3878 26.5686 29.8833L26.09 30.1445L21.3217 30.0905C21.9358 28.6941 23.8052 26.4868 24.7895 26.64C25.2682 26.7211 25.9093 26.9193 26.4331 27.0454C26.4873 27.613 26.5415 28.1805 26.6408 28.7391C26.677 28.9373 26.6589 29.3337 27.0021 29.3247C27.3362 29.3157 27.3001 28.9103 27.3362 28.7121C27.4446 28.0905 27.6794 27.5049 27.8781 26.9103M28.1941 25.4778L28.7089 25.2616C28.4831 25.649 28.2844 26.0274 28.0496 26.3157C28.0948 26.1265 28.14 25.9373 28.167 25.7391C28.1761 25.649 28.1851 25.5679 28.1941 25.4778ZM29.0521 21.8742L30.3796 20.9823L30.3164 20.8832C30.804 21.6489 31.2195 22.4688 31.5626 23.3336H31.4723C30.1267 23.3426 29.4494 24.0634 28.9527 24.8562L28.2032 25.1715C28.1851 24.4778 27.851 23.8381 27.6433 23.1895C28.0858 23.0543 28.5373 23.0183 28.9618 22.739C29.2236 22.5679 29.2236 22.1715 29.0521 21.9372V21.8832V21.8742ZM28.6999 21.3787C28.6005 21.1444 28.3386 20.9642 28.0858 21.0093C27.8871 21.0543 27.6433 21.1714 27.4536 21.2615C27.2098 21.3787 26.9659 21.4958 26.7041 21.5859L26.4693 21.6579C26.1893 21.4597 25.9003 21.2705 25.5842 21.1174L28.2483 18.4327C28.9888 19.1084 29.6481 19.8831 30.208 20.748L28.9256 21.6129C28.8624 21.5138 28.7811 21.4327 28.6908 21.3787M21.9087 20.712C21.3398 20.721 21.3217 20.712 21.8726 20.8741C22.8931 21.1714 23.8955 21.3606 24.7715 21.9642L25.9184 21.73H25.9635H26.0267C25.6384 21.4778 25.2411 21.2796 24.8347 21.1354C23.8955 20.7931 22.9111 20.703 21.9087 20.721M24.4825 22.8652C24.4012 22.8652 24.347 22.7931 24.356 22.703L24.5096 22.5679C24.5908 22.5679 24.645 22.6399 24.636 22.73L24.4825 22.8652ZM25.9545 22.0183L24.5547 22.3066C23.9135 22.2255 23.6968 23.0363 23.6426 23.3787C23.8232 23.3246 24.1664 23.2526 24.347 23.2075C24.6812 23.2345 24.934 23.2886 25.1146 23.3607C25.4488 23.4778 25.7468 23.6219 26.0177 23.7931C26.677 24.73 26.695 27.2526 26.9479 28.676C27.0382 29.1715 26.9569 29.0724 27.0382 28.649C27.1285 28.1355 27.3181 27.631 27.4897 27.1175L26.8485 24.9553L27.0833 24.8922L27.6162 26.7301C27.6974 26.4778 27.7697 26.2166 27.8239 25.9553L27.1375 24.5409L27.3543 24.4327L27.8781 25.5319L27.8961 25.2976C27.9232 24.5499 27.4536 23.721 27.273 23.0003C27.7516 22.7841 28.3477 22.7751 28.7992 22.4868C28.8714 22.4417 28.8805 22.3246 28.8624 22.2345L27.8419 22.4778L27.7878 22.2435L28.754 22.0093C28.7721 21.9192 28.7089 21.766 28.6005 21.685L27.7065 22.1174L27.5981 21.9012L28.4289 21.5138C28.3838 21.4147 28.2483 21.3246 28.158 21.3426C27.7607 21.4147 26.7853 22.1084 25.9545 22.0453M21.0147 57.253L21.3307 57.8656L21.6468 57.253C22.4325 55.7395 24.3199 54.4511 25.7378 53.5773C27.869 52.2619 30.1448 51.1448 32.3483 49.9646C34.4705 48.8295 36.656 47.5952 38.5344 46.0997C40.1509 44.8114 41.6861 43.1988 42.3002 41.1807C42.4899 40.5591 42.5892 39.9194 42.5892 39.2708C42.5892 36.2437 41.5326 33.532 40.4038 30.7842C39.5639 28.7301 38.3628 26.1175 38.6066 23.8562C38.8595 21.5588 40.467 19.9822 42.3273 18.784L42.6615 18.5678L36.4573 10.5947L36.3219 10.5677C35.3826 10.3875 34.4434 10.2254 33.5042 10.0812L31.1653 4.68474L31.9961 4.81087L32.8631 4.07212L33.4862 2.73877C33.5946 2.52255 33.5223 1.50452 33.5223 1.1802C33.0437 1.08109 30.3706 0.540547 30.1629 0.567575L28.2664 1.43245V0.333338L24.9069 0.0630639L23.751 1.17119L23.0105 1.15317V0H19.651V1.15317L18.9195 1.17119L17.7545 0.072073L14.3951 0.342347V1.44146L12.4986 0.585593C12.2819 0.558566 9.62683 1.0901 9.13916 1.1892C9.13916 1.51353 9.07595 2.52255 9.17529 2.73877C9.95193 4.35141 9.39202 3.76581 10.7737 4.80186L11.424 4.70276L9.13916 10.1353C8.20899 10.2704 7.27882 10.4145 6.34865 10.5677L6.21319 10.5947L0 18.5678L0.334139 18.784C2.19448 19.9822 3.80196 21.5588 4.05483 23.8562C4.30769 26.1084 3.10659 28.7301 2.2577 30.7842C1.12885 33.532 0.0722463 36.2437 0.0722463 39.2708C0.0722463 39.9194 0.171585 40.5591 0.361232 41.1807C0.975326 43.1897 2.51056 44.8114 4.12707 46.0997C6.00548 47.6042 8.19093 48.8295 10.3132 49.9646C12.5167 51.1448 14.7924 52.2619 16.9237 53.5773C18.3415 54.4511 20.229 55.7395 21.0147 57.253Z" fill="white"/>
</svg>
